<svg width="20" height="17" viewBox="0 0 20 17" fill="none" xmlns="http://www.w3.org/2000/svg">
<path d="M9.84356 16.2699C7.50941 16.2699 5.18048 16.2699 2.84633 16.2699C1.44688 16.2699 0.459961 15.2829 0.459961 13.8783C0.459961 10.881 0.459961 7.88364 0.459961 4.88631C0.459961 3.48687 1.44688 2.50517 2.85155 2.50517C3.65049 2.50517 4.45465 2.49994 5.25359 2.51039C5.38413 2.51039 5.44679 2.47906 5.48857 2.34329C5.57212 2.05609 5.67133 1.77411 5.77577 1.49213C6.10474 0.599203 6.93501 0.00913818 7.8906 0.00391636C9.19606 -0.00130545 10.4963 -0.00130545 11.8017 0.00391636C12.7573 0.00913818 13.5824 0.593982 13.9166 1.49736C14.0158 1.76367 14.1098 2.0352 14.1881 2.31196C14.2299 2.45817 14.2926 2.51561 14.4596 2.51039C15.269 2.49994 16.0732 2.50517 16.8826 2.50517C18.2298 2.50517 19.2272 3.50253 19.2272 4.84976C19.2272 7.87319 19.2272 10.8966 19.2272 13.9201C19.2272 15.2673 18.2298 16.2647 16.8773 16.2647C14.5328 16.2699 12.1882 16.2699 9.84356 16.2699ZM9.84356 15.0166C12.1777 15.0166 14.5066 15.0166 16.8408 15.0166C17.5457 15.0166 17.9739 14.5937 17.9739 13.8887C17.9739 10.8862 17.9739 7.88364 17.9739 4.87587C17.9739 4.18137 17.5457 3.75318 16.8565 3.75318C15.8643 3.75318 14.8774 3.75318 13.8853 3.75318C13.5041 3.75318 13.3108 3.61219 13.1855 3.25189C13.0445 2.83936 12.9088 2.42684 12.773 2.01432C12.6007 1.51302 12.2456 1.25193 11.7182 1.25193C10.4754 1.25193 9.22739 1.25193 7.9846 1.25193C7.43109 1.25193 7.08645 1.50258 6.9089 2.0352C6.77836 2.42162 6.64781 2.81325 6.51727 3.19967C6.37628 3.62263 6.19874 3.75318 5.75488 3.75318C4.78885 3.75318 3.82803 3.75318 2.862 3.75318C2.12572 3.75318 1.70797 4.17093 1.70797 4.90198C1.70797 7.88364 1.70797 10.8705 1.70797 13.8522C1.70797 14.5989 2.1205 15.0166 2.86722 15.0166C5.19615 15.0166 7.51986 15.0166 9.84356 15.0166Z" fill="#364764"/>
<path d="M5.14941 9.07952C5.14941 6.49472 7.24858 4.37988 9.82294 4.37988C12.4286 4.37988 14.533 6.48427 14.5278 9.08474C14.5278 11.6643 12.4182 13.7635 9.83338 13.7635C7.25381 13.7635 5.15464 11.6643 5.14941 9.07952ZM13.285 9.07952C13.285 7.184 11.7446 5.63312 9.86471 5.63312C7.93786 5.63312 6.40265 7.16833 6.40265 9.09518C6.40787 10.975 7.95353 12.5102 9.84905 12.5155C11.7341 12.5155 13.285 10.9646 13.285 9.07952Z" fill="#364764"/>
<path d="M16.7203 5.64868C16.7099 5.9881 16.4227 6.26485 16.0833 6.25963C15.7386 6.25441 15.4566 5.95677 15.4723 5.6069C15.488 5.26749 15.7752 4.99595 16.1198 5.00639C16.4592 5.01684 16.7308 5.30926 16.7203 5.64868Z" fill="#364764"/>
</svg>
