<svg width="22" height="18" viewBox="0 0 22 18" fill="none" xmlns="http://www.w3.org/2000/svg"> <path d="M6.82938 15.3228C7.21282 15.3228 7.59626 15.3228 7.97969 15.3228C8.42123 15.3228 8.73495 15.0323 8.74076 14.6314C8.74076 14.2305 8.42704 13.9342 7.99131 13.9342C7.47425 13.9342 6.963 13.9459 6.44594 13.9284C5.99859 13.9168 5.54544 13.9168 5.1039 13.8355C3.04146 13.452 1.61228 11.5058 1.78657 9.35621C1.95505 7.30539 3.73862 5.62639 5.80106 5.5741C6.42851 5.55667 6.62023 5.394 6.73642 4.78399C7.10243 2.82031 8.83372 1.39113 10.8439 1.39694C12.8482 1.40275 14.5679 2.84355 14.9223 4.81884C15.021 5.35334 15.265 5.56248 15.8112 5.5741C18.4371 5.62639 20.3834 8.1478 19.7676 10.6982C19.3086 12.6038 17.6586 13.911 15.7008 13.9226C15.0036 13.9284 14.3064 13.9168 13.6151 13.9284C13.2317 13.9342 12.9354 14.2305 12.9237 14.6024C12.9121 14.9742 13.1968 15.3111 13.5686 15.317C14.4575 15.3228 15.358 15.3576 16.2411 15.2763C19.3086 14.9974 21.5744 12.1274 21.1735 9.08316C20.8423 6.56175 18.96 4.63293 16.4386 4.24369C16.2759 4.22045 16.212 4.16816 16.1655 4.0113C15.387 1.33884 12.7436 -0.380826 10.0189 0.0723293C7.71826 0.455769 6.20774 1.80943 5.48734 4.03454C5.45248 4.14492 5.42343 4.22045 5.284 4.23207C2.72774 4.52836 0.711775 6.57337 0.427101 9.14125C0.124997 11.866 1.83305 14.3874 4.47645 15.1252C5.24914 15.3344 6.03926 15.3286 6.82938 15.3228ZM11.5236 7.96189C11.6166 8.04903 11.6747 8.10132 11.7328 8.15942C12.4241 8.85077 13.1155 9.54793 13.8126 10.2335C14.0973 10.5123 14.5214 10.5065 14.7886 10.2393C15.0617 9.97204 15.0733 9.54212 14.8003 9.26326C13.6441 8.09551 12.4764 6.93357 11.3086 5.77163C11.0298 5.49858 10.6231 5.50439 10.35 5.77744C9.1823 6.93938 8.02036 8.10132 6.85843 9.26907C6.70156 9.42593 6.63766 9.62927 6.67251 9.85003C6.71899 10.1231 6.87004 10.3148 7.13729 10.402C7.41615 10.4949 7.66597 10.4252 7.87512 10.216C8.56647 9.52469 9.25783 8.83334 9.94918 8.14199C9.99566 8.09551 10.0479 8.04903 10.1351 7.97351C10.1351 8.0897 10.1351 8.17103 10.1351 8.24656C10.1351 11.0062 10.1351 13.7716 10.1351 16.5312C10.1351 16.6009 10.1351 16.6764 10.1351 16.7461C10.1525 17.0947 10.4256 17.3794 10.7683 17.4084C11.1169 17.4375 11.4423 17.1935 11.512 16.8449C11.5294 16.7519 11.5236 16.659 11.5236 16.566C11.5236 13.7948 11.5236 11.0294 11.5236 8.25818C11.5236 8.17103 11.5236 8.09551 11.5236 7.96189Z" fill="white"/> <path d="M6.82938 15.3228C6.03926 15.3286 5.24914 15.3402 4.47645 15.1252C1.83305 14.3874 0.124997 11.866 0.427101 9.14125C0.711775 6.57337 2.72774 4.52836 5.27819 4.23207C5.41762 4.21464 5.44667 4.14492 5.48153 4.03454C6.20193 1.80943 7.71245 0.455769 10.0131 0.0723293C12.7378 -0.380826 15.3812 1.33884 16.1597 4.0113C16.2062 4.16816 16.2701 4.22045 16.4328 4.24369C18.9542 4.62712 20.8423 6.55594 21.1677 9.08316C21.5627 12.1274 19.297 14.9974 16.2353 15.2763C15.3522 15.3576 14.4517 15.317 13.5628 15.317C13.191 15.317 12.9063 14.9742 12.9179 14.6024C12.9295 14.2305 13.2258 13.9342 13.6093 13.9284C14.3064 13.9226 15.0036 13.9284 15.695 13.9226C17.6586 13.911 19.3028 12.6038 19.7617 10.6982C20.3776 8.1478 18.4313 5.62639 15.8053 5.5741C15.2592 5.56248 15.0152 5.35334 14.9165 4.81884C14.5621 2.84355 12.8424 1.40275 10.8381 1.39694C8.82791 1.39113 7.09662 2.82031 6.73061 4.78399C6.61442 5.394 6.4227 5.56248 5.79525 5.5741C3.73281 5.62058 1.94924 7.30539 1.78076 9.35621C1.60647 11.5058 3.03565 13.452 5.09809 13.8355C5.53382 13.9168 5.99278 13.911 6.44013 13.9284C6.95719 13.9401 7.46844 13.9284 7.9855 13.9342C8.42704 13.9342 8.74076 14.2305 8.73495 14.6314C8.73495 15.0323 8.42123 15.3228 7.97388 15.3228C7.59625 15.3228 7.21282 15.3228 6.82938 15.3228Z" fill="#364764"/> <path d="M11.5234 7.96194C11.5234 8.09556 11.5234 8.1769 11.5234 8.25242C11.5234 11.0236 11.5234 13.7891 11.5234 16.5603C11.5234 16.6532 11.5292 16.752 11.5118 16.8391C11.4479 17.1877 11.1168 17.4317 10.7682 17.4027C10.4254 17.3736 10.1523 17.089 10.1349 16.7404C10.1291 16.6707 10.1349 16.5951 10.1349 16.5254C10.1349 13.7658 10.1349 11.0004 10.1349 8.2408C10.1349 8.16528 10.1349 8.08975 10.1349 7.96775C10.0536 8.04327 9.99549 8.08975 9.94901 8.13623C9.25766 8.82758 8.5663 9.51893 7.87495 10.2103C7.6658 10.4194 7.4218 10.4892 7.13712 10.3962C6.87568 10.3091 6.71882 10.1173 6.67235 9.84428C6.63749 9.62351 6.70139 9.42598 6.85826 9.26331C8.02019 8.09556 9.18213 6.93362 10.3499 5.77168C10.6229 5.49863 11.0354 5.49282 11.3085 5.76587C12.4762 6.922 13.6382 8.08975 14.8001 9.2575C15.079 9.53636 15.0615 9.96628 14.7885 10.2335C14.5154 10.5008 14.0913 10.5066 13.8125 10.2277C13.1153 9.54217 12.4297 8.84501 11.7326 8.15366C11.6745 8.10137 11.6222 8.04908 11.5234 7.96194Z" fill="#364764"/> </svg>