<svg width="28" height="35" viewBox="0 0 28 35" fill="none" xmlns="http://www.w3.org/2000/svg">
<path d="M0 17.4725C0 13.1903 0 8.91496 0 4.63276C0 2.37824 1.46822 0.549882 3.64977 0.0481147C3.78135 0.0206206 3.91986 0.00687353 4.05837 0.00687353C8.86471 0.00687353 13.671 0.00687353 18.4704 0C18.789 0 18.9829 0.158091 19.1699 0.357423C21.4484 2.72879 23.7269 5.09328 25.9985 7.46465C26.5387 8.02828 27.072 8.59191 27.6191 9.14867C27.8684 9.40986 27.9862 9.70542 27.9862 10.0697C27.9792 16.792 27.9862 23.5075 27.9792 30.2298C27.9723 32.9929 25.9431 34.9863 23.159 34.9931C17.023 34.9931 10.88 35 4.744 34.9931C2.4655 34.9931 0.630225 33.5634 0.117734 31.3845C0.0277022 30.9927 0 30.5734 0 30.161C0 25.9338 0 21.6997 0 17.4725ZM17.584 1.66339C17.4524 1.65652 17.3485 1.64277 17.2515 1.64277C13.1031 1.64277 8.94781 1.6359 4.79941 1.64277C2.95721 1.64277 1.71754 2.88688 1.71754 4.72899C1.71754 13.2178 1.71754 21.7066 1.71754 30.1954C1.71754 32.065 2.96414 33.2954 4.85481 33.2954C10.9493 33.2954 17.0438 33.2954 23.1383 33.2954C25.0428 33.2954 26.2894 32.0581 26.2894 30.1679C26.2894 23.803 26.2894 17.4313 26.2894 11.0664C26.2894 10.9495 26.2894 10.8258 26.2894 10.6883C24.6619 10.6883 23.0829 10.6883 21.5108 10.6883C19.1769 10.6883 17.5909 9.12117 17.5909 6.80479C17.5909 5.21701 17.5909 3.6361 17.5909 2.04831C17.584 1.92459 17.584 1.80086 17.584 1.66339ZM19.3223 2.96936C19.3015 3.09996 19.2877 3.14808 19.2877 3.20306C19.2877 4.44717 19.2669 5.69128 19.2946 6.93539C19.3223 8.20012 20.1534 8.9837 21.4277 8.99745C22.5427 9.01119 23.6577 8.99745 24.7727 8.99745C24.8558 8.99745 24.9389 8.97683 25.0774 8.96308C23.1452 6.95601 21.2614 4.99018 19.3223 2.96936Z" fill="#364764"/>
<path d="M13.1377 21.5829C13.1377 21.4523 13.1377 21.3217 13.1377 21.1911C13.1377 18.3592 13.1308 15.5342 13.1446 12.7023C13.1446 12.4411 13.2208 12.1593 13.3524 11.9325C13.5186 11.6369 13.9134 11.5338 14.2319 11.6438C14.5713 11.7606 14.786 12.0012 14.8345 12.3655C14.8483 12.4892 14.8414 12.6129 14.8414 12.7435C14.8414 15.5754 14.8414 18.4004 14.8414 21.2323C14.8414 21.3561 14.8414 21.4729 14.8414 21.5966C14.8829 21.6241 14.9245 21.6585 14.966 21.686C15.0284 21.5829 15.0768 21.4592 15.16 21.3767C16.1988 20.2632 17.2445 19.1565 18.2834 18.043C18.4981 17.8093 18.7474 17.665 19.066 17.6925C19.7308 17.7543 20.0563 18.4829 19.6685 19.0191C19.5992 19.1084 19.5231 19.1978 19.4469 19.2803C17.8955 20.9299 16.3442 22.5864 14.7929 24.2361C14.2181 24.8547 13.7748 24.8547 13.2 24.2429C11.6141 22.5589 10.035 20.868 8.45602 19.184C8.18592 18.9022 8.08204 18.5792 8.22748 18.2149C8.35214 17.9055 8.58761 17.72 8.93388 17.6925C9.28709 17.665 9.54333 17.8506 9.76495 18.098C10.7899 19.1909 11.8149 20.2838 12.8399 21.3836C12.9161 21.466 12.9646 21.5691 13.0269 21.6585C13.0615 21.6241 13.0961 21.6035 13.1377 21.5829Z" fill="#364764"/>
<path d="M14.0102 27.4596C16.2748 27.4596 18.5395 27.4596 20.8041 27.4596C20.9634 27.4596 21.1296 27.4596 21.282 27.5078C21.6698 27.6315 21.9053 27.9958 21.8707 28.3738C21.8429 28.745 21.5382 29.068 21.1435 29.1299C21.0534 29.1436 20.9634 29.1505 20.8664 29.1505C16.2887 29.1505 11.7178 29.1505 7.14001 29.1505C6.57211 29.1505 6.19121 28.8618 6.1358 28.4151C6.06655 27.8789 6.4613 27.4596 7.04305 27.4528C8.629 27.4459 10.215 27.4528 11.8009 27.4528C12.5419 27.4596 13.276 27.4596 14.0102 27.4596Z" fill="#364764"/>
</svg>
