<svg width="156" height="21" viewBox="0 0 156 21" fill="none" xmlns="http://www.w3.org/2000/svg">
<path d="M45.4675 1.00342V8.34607C45.2708 8.02789 45.0249 7.75866 44.7052 7.48943C44.3856 7.2202 44.0167 6.99992 43.5987 6.80412C43.1806 6.60831 42.7626 6.46146 42.2954 6.36356C41.8282 6.26566 41.361 6.2167 40.9183 6.2167C40.1806 6.2167 39.4675 6.33908 38.779 6.58384C38.0905 6.82859 37.4757 7.2202 36.9347 7.75866C36.3937 8.29712 35.9757 9.00692 35.6315 9.88803C35.3118 10.7692 35.1396 11.8461 35.1396 13.0943C35.1396 14.2936 35.2872 15.3216 35.6315 16.1782C35.9511 17.0349 36.3692 17.7692 36.9101 18.3076C37.4511 18.8706 38.0905 19.2866 38.8036 19.5559C39.5167 19.8251 40.279 19.9475 41.0659 19.9475C41.5085 19.9475 41.9265 19.8985 42.3692 19.7761C42.8118 19.6538 43.2052 19.5069 43.5987 19.2866C43.9921 19.0664 44.3364 18.7971 44.656 18.5034C44.9757 18.1852 45.2462 17.8426 45.4675 17.451V19.6048H50.7298V1.00342H45.4675ZM45.2462 14.7831C45.0987 15.2237 44.9019 15.5908 44.6806 15.8601C44.4347 16.1293 44.1888 16.3251 43.8692 16.4475C43.5741 16.5699 43.2544 16.6188 42.9347 16.6188C42.6151 16.6188 42.32 16.5699 42.0003 16.4475C41.7052 16.3251 41.4347 16.1293 41.1888 15.8601C40.9429 15.5908 40.7462 15.2237 40.5987 14.7831C40.4511 14.3426 40.3774 13.7796 40.3774 13.1188C40.3774 12.458 40.4511 11.895 40.5987 11.4545C40.7462 11.0139 40.9429 10.6468 41.1888 10.3775C41.4347 10.1083 41.7052 9.91251 42.0003 9.79013C42.2954 9.66775 42.6151 9.6188 42.9347 9.6188C43.2544 9.6188 43.5495 9.66775 43.8446 9.79013C44.1397 9.91251 44.4101 10.1083 44.6315 10.3775C44.8774 10.6468 45.0495 11.0139 45.197 11.4545C45.3446 11.895 45.4183 12.458 45.4183 13.1188C45.4675 13.7552 45.3937 14.3181 45.2462 14.7831Z" fill="#1C1C1C"/>
<path d="M59.9507 14.0979C60.4425 14.0979 60.9589 14.0979 61.5245 14.0734C62.0655 14.049 62.6064 14 63.1474 13.9021C63.6638 13.8042 64.1802 13.6818 64.6474 13.5105C65.1146 13.3392 65.5327 13.0944 65.9015 12.8007C66.2704 12.507 66.5409 12.1154 66.7622 11.6748C66.9835 11.2343 67.0819 10.6958 67.0819 10.0595C67.0819 9.54547 66.9589 9.05596 66.713 8.59092C66.4671 8.12589 66.0982 7.73428 65.631 7.36715C65.1638 7.02449 64.5491 6.73078 63.8605 6.53498C63.1474 6.33917 62.3114 6.2168 61.3769 6.2168C60.7868 6.2168 60.172 6.29022 59.5573 6.4126C58.9425 6.53498 58.3523 6.73078 57.7622 7.00001C57.172 7.26924 56.631 7.58743 56.1392 7.95456C55.6228 8.32169 55.1802 8.76225 54.8114 9.25176C54.4425 9.74127 54.1228 10.2797 53.9261 10.8916C53.7048 11.5035 53.6064 12.1399 53.6064 12.8497C53.6064 14.0734 53.8278 15.1504 54.2458 16.0315C54.6638 16.9126 55.254 17.6713 55.9671 18.2343C56.6802 18.8217 57.5163 19.2378 58.4753 19.507C59.4343 19.7762 60.4179 19.9231 61.4753 19.9231C62.4343 19.9231 63.3442 19.8497 64.2294 19.6783C65.1146 19.507 65.9507 19.3112 66.713 19.0664V15.6643C66.3687 15.7867 65.9999 15.9091 65.631 16.007C65.2622 16.1294 64.8687 16.2028 64.4999 16.3007C64.131 16.3741 63.7376 16.4476 63.3687 16.4965C62.9999 16.5455 62.6556 16.5699 62.336 16.5699C61.8933 16.5699 61.4999 16.521 61.131 16.4476C60.7622 16.3741 60.4179 16.2273 60.1228 16.0315C59.8278 15.8357 59.6064 15.5909 59.4097 15.2727C59.213 14.9546 59.0901 14.563 59.0163 14.0979C59.1638 14.0979 59.336 14.0979 59.4835 14.0979C59.631 14.0979 59.7786 14.0979 59.9507 14.0979ZM58.8933 12.2133C58.9179 11.6014 59.0163 11.0874 59.213 10.7203C59.4097 10.3287 59.631 10.035 59.9015 9.8147C60.172 9.59442 60.4671 9.44757 60.7622 9.37414C61.0819 9.30071 61.3523 9.25176 61.6228 9.25176C62.213 9.25176 62.6556 9.37414 62.9999 9.61889C63.3196 9.86365 63.4917 10.2063 63.4917 10.5979C63.4917 10.8427 63.4179 11.0385 63.2458 11.2098C63.0737 11.3811 62.8523 11.528 62.5819 11.6259C62.3114 11.7483 61.9917 11.8217 61.6474 11.8951C61.3032 11.9685 60.9589 12.0175 60.6146 12.0664C60.2704 12.1154 59.9507 12.1399 59.6556 12.1399C59.336 12.2133 59.0901 12.2133 58.8933 12.2133Z" fill="#1C1C1C"/>
<path d="M79.5006 6.55933L76.9678 16.3495L74.6809 6.55933H68.7793L73.1072 19.6293H79.7711L83.976 6.55933H79.5006Z" fill="#1C1C1C"/>
<path d="M110.066 9.32513C109.894 8.68876 109.623 8.12583 109.254 7.66079C108.886 7.19576 108.394 6.8531 107.779 6.60834C107.164 6.36359 106.427 6.24121 105.541 6.24121C105 6.24121 104.459 6.31464 103.894 6.43701C103.353 6.55939 102.836 6.7552 102.345 6.99995C101.853 7.24471 101.41 7.51394 101.017 7.8566C100.623 8.17478 100.279 8.54191 100.033 8.93352C99.8118 8.49296 99.5659 8.10135 99.2708 7.75869C98.9757 7.41604 98.656 7.14681 98.3118 6.92653C97.9675 6.70625 97.5987 6.53492 97.2052 6.41254C96.8118 6.29016 96.4183 6.24121 96.0249 6.24121C95.5331 6.24121 95.0167 6.31464 94.5249 6.46149C94.0331 6.60834 93.5659 6.82862 93.1233 7.07338C92.6806 7.31813 92.2872 7.61184 91.9429 7.9545C91.5987 8.29715 91.3036 8.63981 91.0823 9.00694C91.0823 8.78666 91.0823 8.56639 91.1069 8.37058C91.1315 8.17478 91.1315 7.97897 91.156 7.78317C91.1806 7.58736 91.2052 7.39156 91.279 7.19576C91.3528 6.99995 91.4019 6.77967 91.4511 6.53492H86.1396V19.6048H91.4019V11.5769C91.4019 11.2832 91.4757 11.0384 91.6233 10.7937C91.7708 10.5489 91.9429 10.3531 92.1642 10.1818C92.3856 10.0104 92.6315 9.86359 92.9265 9.76569C93.197 9.66778 93.4675 9.61883 93.738 9.61883C94.1069 9.61883 94.4265 9.69226 94.697 9.83911C94.9429 9.98597 95.1397 10.1818 95.2872 10.4265C95.4347 10.6713 95.5331 10.965 95.6069 11.2587C95.6806 11.5524 95.7052 11.8951 95.7052 12.2377V19.6293H100.968V12.0419C100.968 11.7237 101.017 11.43 101.14 11.1363C101.263 10.8426 101.41 10.5979 101.607 10.3531C101.804 10.1328 102.025 9.93701 102.271 9.81464C102.517 9.66778 102.787 9.61883 103.082 9.61883C103.5 9.61883 103.82 9.71674 104.09 9.88806C104.336 10.0839 104.558 10.3041 104.705 10.5734C104.853 10.8426 104.951 11.1363 105 11.43C105.049 11.7237 105.074 11.993 105.074 12.2377V19.6293H110.336V11.479C110.336 10.6958 110.238 9.96149 110.066 9.32513Z" fill="#1C1C1C"/>
<path d="M119.459 14.0979C119.951 14.0979 120.468 14.0979 121.033 14.0734C121.574 14.049 122.115 14 122.656 13.9021C123.172 13.8042 123.689 13.6818 124.156 13.5105C124.623 13.3392 125.041 13.0944 125.41 12.8007C125.779 12.507 126.049 12.1154 126.271 11.6748C126.492 11.2343 126.59 10.6958 126.59 10.0595C126.59 9.54547 126.468 9.05596 126.222 8.59092C125.976 8.12589 125.607 7.73428 125.14 7.36715C124.672 7.02449 124.082 6.73078 123.369 6.53498C122.656 6.33917 121.82 6.2168 120.91 6.2168C120.32 6.2168 119.705 6.29022 119.09 6.4126C118.476 6.53498 117.861 6.73078 117.295 7.00001C116.73 7.26924 116.164 7.58743 115.672 7.95456C115.156 8.32169 114.713 8.76225 114.345 9.25176C113.976 9.74127 113.681 10.2797 113.459 10.8916C113.238 11.5035 113.14 12.1399 113.14 12.8497C113.14 14.0734 113.361 15.1504 113.779 16.0315C114.197 16.9371 114.787 17.6713 115.5 18.2343C116.213 18.8217 117.049 19.2378 118.008 19.507C118.968 19.7762 119.951 19.9231 121.009 19.9231C121.968 19.9231 122.877 19.8497 123.763 19.6783C124.648 19.507 125.484 19.3112 126.246 19.0664V15.6643C125.902 15.7867 125.533 15.9091 125.164 16.007C124.795 16.1294 124.402 16.2028 124.033 16.3007C123.664 16.3741 123.271 16.4476 122.902 16.4965C122.533 16.5455 122.189 16.5699 121.869 16.5699C121.427 16.5699 121.033 16.521 120.664 16.4476C120.295 16.3741 119.951 16.2273 119.656 16.0315C119.361 15.8357 119.14 15.5909 118.943 15.2727C118.746 14.9546 118.623 14.563 118.549 14.0979C118.697 14.0979 118.869 14.0979 119.017 14.0979C119.115 14.0979 119.287 14.0979 119.459 14.0979ZM118.402 12.2133C118.427 11.6014 118.525 11.0874 118.722 10.7203C118.918 10.3532 119.14 10.035 119.41 9.8147C119.681 9.59442 119.976 9.44757 120.271 9.37414C120.566 9.30071 120.861 9.25176 121.131 9.25176C121.722 9.25176 122.164 9.37414 122.509 9.61889C122.828 9.86365 123 10.2063 123 10.5979C123 10.8427 122.902 11.0385 122.754 11.2098C122.582 11.3811 122.361 11.528 122.09 11.6259C121.82 11.7483 121.5 11.8217 121.156 11.8951C120.812 11.9685 120.468 12.0175 120.123 12.0664C119.779 12.1154 119.459 12.1399 119.164 12.1399C118.845 12.2133 118.574 12.2133 118.402 12.2133Z" fill="#1C1C1C"/>
<path d="M135.247 14.0979C135.738 14.0979 136.255 14.0979 136.82 14.0734C137.361 14.049 137.902 14 138.443 13.9021C138.984 13.8042 139.476 13.6818 139.943 13.5105C140.411 13.3392 140.829 13.0944 141.197 12.8007C141.566 12.507 141.837 12.1154 142.058 11.6748C142.279 11.2343 142.378 10.6958 142.378 10.0595C142.378 9.54547 142.255 9.05596 142.009 8.59092C141.763 8.12589 141.394 7.73428 140.927 7.36715C140.46 7.02449 139.845 6.73078 139.132 6.53498C138.419 6.33917 137.607 6.2168 136.673 6.2168C136.083 6.2168 135.468 6.29022 134.853 6.4126C134.238 6.53498 133.648 6.73078 133.058 7.00001C132.468 7.26924 131.927 7.58743 131.435 7.95456C130.919 8.32169 130.476 8.76225 130.107 9.25176C129.738 9.74127 129.419 10.2797 129.222 10.8916C129.001 11.5035 128.902 12.1399 128.902 12.8497C128.902 14.0734 129.124 15.1504 129.542 16.0315C129.96 16.9371 130.55 17.6713 131.263 18.2343C131.976 18.8217 132.812 19.2378 133.771 19.507C134.73 19.7762 135.714 19.9231 136.771 19.9231C137.73 19.9231 138.64 19.8497 139.525 19.6783C140.411 19.507 141.247 19.3112 141.984 19.0664V15.6643C141.64 15.7867 141.271 15.9091 140.902 16.007C140.533 16.1294 140.14 16.2028 139.771 16.3007C139.402 16.3741 139.033 16.4476 138.665 16.4965C138.296 16.5455 137.952 16.5699 137.632 16.5699C137.189 16.5699 136.796 16.521 136.427 16.4476C136.058 16.3741 135.714 16.2273 135.419 16.0315C135.124 15.8357 134.878 15.5909 134.706 15.2727C134.509 14.9546 134.386 14.563 134.312 14.0979C134.46 14.0979 134.632 14.0979 134.779 14.0979C134.927 14.0979 135.074 14.0979 135.247 14.0979ZM134.189 12.2133C134.214 11.6014 134.312 11.0874 134.509 10.7203C134.706 10.3532 134.927 10.035 135.197 9.8147C135.468 9.59442 135.763 9.44757 136.058 9.37414C136.353 9.30071 136.648 9.25176 136.919 9.25176C137.509 9.25176 137.952 9.37414 138.296 9.61889C138.615 9.86365 138.788 10.2063 138.788 10.5979C138.788 10.8427 138.714 11.0385 138.542 11.2098C138.37 11.3811 138.148 11.528 137.878 11.6259C137.607 11.7483 137.288 11.8217 136.943 11.8951C136.599 11.9685 136.255 12.0175 135.911 12.0664C135.566 12.1154 135.247 12.1399 134.952 12.1399C134.632 12.2133 134.386 12.2133 134.189 12.2133Z" fill="#1C1C1C"/>
<path d="M155.706 16.2027C155.288 16.3495 154.919 16.4474 154.574 16.4964C154.23 16.5453 153.935 16.5698 153.665 16.5698C153.222 16.5698 152.902 16.5209 152.632 16.374C152.386 16.2516 152.165 16.0803 152.042 15.8845C151.894 15.6887 151.82 15.4439 151.771 15.1747C151.722 14.9055 151.697 14.6118 151.697 14.3181V9.54535H155.214C155.214 9.00689 155.263 8.4929 155.337 8.00339C155.41 7.51388 155.509 7.02437 155.607 6.53486H151.722V2.56982H149.779L144.05 8.76213V9.54535H146.46V14.3915C146.46 15.4684 146.607 16.3495 146.927 17.0593C147.247 17.7691 147.665 18.3565 148.181 18.7726C148.697 19.2132 149.312 19.5069 150.001 19.7027C150.689 19.8985 151.402 19.9719 152.165 19.9719C152.902 19.9719 153.615 19.923 154.255 19.8006C154.894 19.6782 155.509 19.5314 156.025 19.3356L155.706 16.2027Z" fill="#1C1C1C"/>
<path d="M13.1311 0L0 4.30769V10.9406L13.1311 15.1259V10.6713L3.29508 8.15035L13.1311 5.87413V0Z" fill="#1C1C1C"/>
<path d="M14.8525 5.87402V10.3286L24.6886 12.8495L14.8525 15.1258V20.9999L27.9837 16.6922V10.0349L14.8525 5.87402Z" fill="#FCF347"/>
</svg>
