<svg width="21" height="12" viewBox="0 0 21 12" fill="none" xmlns="http://www.w3.org/2000/svg">
<path d="M1.5 5.25C1.08579 5.25 0.75 5.58579 0.75 6C0.75 6.41421 1.08579 6.75 1.5 6.75L1.5 5.25ZM20.2395 6.53033C20.5324 6.23744 20.5324 5.76256 20.2395 5.46967L15.4665 0.6967C15.1736 0.403807 14.6987 0.403807 14.4058 0.6967C14.1129 0.989594 14.1129 1.46447 14.4058 1.75736L18.6485 6L14.4058 10.2426C14.1129 10.5355 14.1129 11.0104 14.4058 11.3033C14.6987 11.5962 15.1736 11.5962 15.4665 11.3033L20.2395 6.53033ZM1.5 6.75L19.7091 6.75L19.7091 5.25L1.5 5.25L1.5 6.75Z" fill="#364764"/>
</svg>
