<svg width="28" height="28" viewBox="0 0 28 28" fill="none" xmlns="http://www.w3.org/2000/svg">
<path fill-rule="evenodd" clip-rule="evenodd" d="M14 1.75C20.7648 1.75 26.25 7.37188 26.25 14.3117C26.25 19.8625 22.7391 24.5656 17.8719 26.2281C17.2594 26.343 17.0352 25.9547 17.0352 25.6211C17.0352 25.3203 17.0461 24.5328 17.0516 23.4828C20.4586 24.243 21.1805 21.7984 21.1805 21.7984C21.7383 20.3492 22.5422 19.9609 22.5422 19.9609C23.6523 19.1789 22.4602 19.1953 22.4602 19.1953C21.2297 19.2828 20.5844 20.4914 20.5844 20.4914C19.4906 22.4109 17.7188 21.8586 17.0188 21.5359C16.9094 20.7266 16.5922 20.1688 16.2422 19.857C18.9602 19.5398 21.8203 18.4625 21.8203 13.65C21.8203 12.2773 21.3445 11.1562 20.5625 10.2812C20.6883 9.96406 21.1094 8.68437 20.4422 6.95625C20.4422 6.95625 19.4141 6.61719 17.0734 8.24141C16.0945 7.9625 15.05 7.82578 14.0055 7.82031C12.9664 7.82578 11.9164 7.9625 10.9375 8.24141C8.59687 6.61719 7.57422 6.95625 7.57422 6.95625C6.90703 8.68437 7.32812 9.96406 7.45391 10.2812C6.67188 11.1617 6.19609 12.2828 6.19609 13.65C6.19609 18.4734 9.06172 19.5344 11.7906 19.8461C11.3531 20.2344 10.9594 21 10.9594 22.1703C10.9594 23.8492 10.9758 25.2055 10.9758 25.6156C10.9758 25.9492 10.757 26.343 10.1336 26.2172C5.25547 24.5602 1.75 19.857 1.75 14.3117C1.75 7.37188 7.23516 1.75 14 1.75Z" fill="#364764"/>
</svg>
