<svg width="25" height="24" viewBox="0 0 25 24" fill="none" xmlns="http://www.w3.org/2000/svg">
<g clip-path="url(#clip0_535_552)">
<path d="M21.9241 14.2146C22.2066 14.1911 22.4657 14.1911 22.7153 14.144C24.3636 13.8333 25.0606 11.833 23.9727 10.5574C23.9162 10.4915 23.8597 10.4303 23.7985 10.3691C20.5724 7.14027 17.3416 3.90669 14.1109 0.687237C13.9225 0.498965 13.6917 0.334227 13.4515 0.207143C12.7922 -0.141161 11.5818 -0.0658518 10.9837 0.56486C10.6399 0.927284 10.2773 1.27088 9.91935 1.62389C7.02296 4.51858 4.12186 7.41326 1.23018 10.3174C1.01354 10.5339 0.796904 10.788 0.683874 11.0704C0.0763397 12.5907 1.00884 14.1205 2.62893 14.1911C2.7608 14.1958 2.89267 14.1911 3.04808 14.1911C3.04808 14.3087 3.04808 14.4029 3.04808 14.4923C3.04808 16.7845 3.04337 19.072 3.04808 21.3642C3.05279 22.6209 3.84871 23.6376 5.04965 23.92C5.27571 23.9718 5.5159 23.9906 5.74667 23.9906C6.93348 23.9953 8.12501 23.9953 9.31182 23.9953C9.90993 23.9953 10.1737 23.7318 10.1737 23.1434C10.1737 21.3548 10.1737 19.5615 10.1737 17.7729C10.1737 16.9257 10.6493 16.4597 11.4971 16.455C12.1705 16.455 12.8393 16.4503 13.5128 16.455C14.2993 16.4597 14.7843 16.9398 14.7843 17.7259C14.7843 19.5239 14.7843 21.3219 14.7843 23.1199C14.7843 23.7318 15.0434 23.9906 15.6509 23.9906C16.8236 23.9906 17.9963 23.9671 19.169 23.9953C20.7372 24.0377 21.9476 22.7998 21.9241 21.2371C21.8817 18.9967 21.9146 16.7516 21.9146 14.5064C21.9241 14.417 21.9241 14.3229 21.9241 14.2146ZM8.77493 22.5833C7.75766 22.5833 6.78278 22.5833 5.80318 22.5833C4.92249 22.5833 4.46095 22.122 4.46095 21.2419C4.46095 18.6955 4.46095 16.1444 4.46095 13.598C4.46095 13.0708 4.17838 12.7884 3.65091 12.7884C3.33066 12.7884 3.0104 12.7931 2.69015 12.7884C2.29455 12.7837 1.98372 12.5249 1.90366 12.1436C1.8283 11.7671 2.0261 11.5082 2.27571 11.2587C5.44526 8.09575 8.6148 4.92807 11.7843 1.76039C12.293 1.25205 12.6933 1.25205 13.2066 1.7651C16.0324 4.58918 18.8581 7.41326 21.6839 10.2373C22.0701 10.6233 22.461 11.0093 22.8424 11.3999C23.0967 11.6588 23.1768 11.9694 23.0261 12.3036C22.8848 12.6284 22.6211 12.7884 22.2632 12.7884C21.9759 12.7884 21.6839 12.7884 21.3966 12.7884C20.7749 12.7884 20.5206 13.0473 20.5206 13.6733C20.5206 16.2197 20.5206 18.7708 20.5206 21.3172C20.5206 22.0985 20.0308 22.5833 19.2443 22.5833C18.3118 22.5833 17.384 22.5833 16.4515 22.5833C16.3762 22.5833 16.3008 22.5739 16.2066 22.5692C16.2066 22.4562 16.2066 22.3668 16.2066 22.2726C16.2066 20.6865 16.2208 19.1003 16.1972 17.5141C16.1784 16.2668 15.1752 15.1654 13.9319 15.0854C12.9759 15.0195 12.0104 15.0712 11.0497 15.0759C10.9743 15.0759 10.8942 15.0948 10.8189 15.1136C9.5991 15.3913 8.78906 16.3938 8.77964 17.6647C8.77022 19.2038 8.77493 20.7429 8.77493 22.2868C8.77493 22.3715 8.77493 22.4656 8.77493 22.5833Z" fill="white"/>
</g>
<defs>
<clipPath id="clip0_535_552">
<rect width="24" height="24" fill="white" transform="matrix(-1 0 0 1 24.5 0)"/>
</clipPath>
</defs>
</svg>
