<svg width="37" height="52" viewBox="0 0 37 52" fill="none" xmlns="http://www.w3.org/2000/svg">
<g clip-path="url(#clip0_199_1374)">
<path d="M3.44727 0H5.79291V2.31562H7.95498V0H10.3006V7.00781H7.95498V4.67188H5.81331V7.00781H3.44727V0ZM13.401 2.33594H11.3307V0H17.8271V2.33594H15.7466V7.00781H13.401V2.33594ZM18.8571 0H21.315L22.8243 2.46797L24.3337 0H26.7915V7.00781H24.4459V3.53437L22.8039 6.05312L21.162 3.53437V7.00781H18.8571V0ZM27.9542 0H30.2998V4.69219H33.6245V7.00781H27.9542" fill="#F9F9F9"/>
<path d="M3.36549 47.836L0 10.2173H37L33.6345 47.8157L18.4694 52.0001" fill="#F9F9F9"/>
<path d="M18.5 48.8008V13.3047H33.6243L30.7381 45.3984" fill="#EBEBEB"/>
<path d="M6.87354 17.9055H18.4998V22.5165H11.9524L12.3807 27.2391H18.4998V31.8399H8.13814L6.87354 17.9055ZM8.34211 34.1555H12.9926L13.319 37.8422L18.4998 39.2235V44.0375L8.99481 41.3969" fill="#364764"/>
<path d="M30.0853 17.9055H18.4795V22.5165H29.657L30.0853 17.9055ZM29.2389 27.2391H18.4795V31.85H24.1906L23.6501 37.8422L18.4795 39.2235V44.0172L27.9641 41.3969" fill="#364764"/>
</g>
<defs>
<clipPath id="clip0_199_1374">
<rect width="37" height="52" fill="white"/>
</clipPath>
</defs>
</svg>
