<svg width="59" height="62" viewBox="0 0 58 41" fill="none" xmlns="http://www.w3.org/2000/svg">
<path d="M48.5177 10.5103C50.6873 9.15186 52.7801 7.81231 54.9113 6.47275C53.1449 3.3597 50.7641 1.17114 47.3082 0.45419C45.5226 0.076851 43.6218 -0.0552178 41.7978 0.0579841C38.2075 0.284388 35.1547 1.71828 33.0044 4.69926C30.1628 8.66132 30.1436 16.51 36.4987 20.3588C38.4187 21.5286 40.5115 22.3776 42.5466 23.3776C44.025 24.0945 45.561 24.736 47.001 25.5284C48.5369 26.3963 49.2089 27.7736 48.8825 29.5093C48.5753 31.113 47.4042 31.9809 45.9066 32.3582C42.4314 33.2639 39.3979 32.5092 36.9787 29.8301C36.4411 29.2263 35.9803 28.5471 35.4427 27.8679C33.1964 29.1509 31.0076 30.4149 28.7804 31.679C29.9132 33.9619 31.4876 35.7543 33.542 37.0938C38.0539 40.056 43.0458 40.6031 48.2106 39.4333C55.0841 37.8674 58.4056 32.6224 57.004 25.8303C56.3128 22.4908 54.2009 20.1513 51.3017 18.5476C48.9401 17.2458 46.425 16.2458 44.0058 15.0572C42.8346 14.4912 41.6442 13.9252 40.6267 13.1517C39.4747 12.2838 39.1675 11.0008 39.5515 9.5858C39.9163 8.22738 40.8571 7.49157 42.2202 7.20857C44.313 6.79349 46.0602 7.37837 47.4234 9.01979C47.7882 9.43487 48.0954 9.90654 48.5177 10.5103ZM0 32.5092C0.863988 34.3581 1.97757 35.8675 3.49435 37.0561C6.77751 39.6786 10.5791 40.2258 14.6686 39.773C20.3709 39.1126 24.3261 35.1694 24.4221 29.5282C24.5757 20.0947 24.5181 10.6801 24.5757 1.2466C24.5757 0.529658 24.2877 0.340989 23.5965 0.359856C21.5613 0.39759 19.5261 0.378723 17.491 0.378723C16.243 0.378723 16.243 0.378723 16.243 1.62394C16.243 9.98201 16.243 18.3589 16.243 26.717C16.243 27.5283 16.2238 28.3396 16.1662 29.1509C15.9934 31.1885 14.9374 32.2639 12.9022 32.5846C10.6943 32.9242 9.06228 32.0564 7.85269 30.2829C7.4687 29.7169 7.1231 29.1509 6.71991 28.5282C4.43514 29.8678 2.26557 31.1696 0 32.5092Z" fill="#364764"/>
<path d="M48.5181 10.5104C48.0957 9.92548 47.7885 9.4538 47.4237 9.01986C46.0605 7.37844 44.3326 6.79356 42.2206 7.20863C40.8574 7.47277 39.9166 8.22745 39.5518 9.58587C39.1678 10.982 39.475 12.265 40.627 13.1517C41.6446 13.9253 42.835 14.4913 44.0062 15.0573C46.4253 16.2459 48.9405 17.2459 51.3021 18.5477C54.2204 20.1514 56.3132 22.4909 57.0044 25.8303C58.406 32.6224 55.0844 37.8863 48.2109 39.4334C43.0462 40.6032 38.0542 40.056 33.5423 37.0939C31.4879 35.7544 29.9327 33.9431 28.7808 31.6791C31.0079 30.415 33.1967 29.1509 35.4431 27.868C35.9807 28.5472 36.4415 29.2264 36.9791 29.8301C39.3982 32.5092 42.4318 33.2639 45.9069 32.3583C47.4045 31.9621 48.5757 31.1131 48.8829 29.5094C49.2093 27.7736 48.5373 26.3963 47.0013 25.5285C45.5613 24.7172 44.0446 24.0946 42.547 23.3776C40.531 22.3965 38.419 21.5287 36.4991 20.3589C30.1439 16.4912 30.1631 8.64252 33.0047 4.69933C35.1743 1.69948 38.227 0.265589 41.8174 0.0391852C43.6414 -0.0740166 45.5421 0.0580522 47.3277 0.435392C50.7837 1.15234 53.1644 3.3409 54.9308 6.45395C52.7804 7.81238 50.6877 9.13306 48.5181 10.5104Z" fill="#364764"/>
<path d="M0 32.5092C2.26557 31.1697 4.43514 29.8678 6.70071 28.5283C7.1039 29.1509 7.4495 29.7169 7.83349 30.2829C9.04308 32.0564 10.6559 32.9243 12.883 32.5847C14.9182 32.2639 15.9742 31.1885 16.147 29.1509C16.2238 28.3396 16.2238 27.5283 16.2238 26.7171C16.2238 18.359 16.2238 9.98205 16.2238 1.62399C16.2238 0.378767 16.2238 0.378767 17.4718 0.378767C19.5069 0.378767 21.5613 0.397634 23.5965 0.3599C24.2685 0.341033 24.5757 0.529703 24.5757 1.24665C24.5181 10.6801 24.5949 20.0947 24.4221 29.5282C24.3261 35.1695 20.3709 39.1127 14.6686 39.773C10.5791 40.2447 6.77751 39.6787 3.49435 37.0562C1.97757 35.8675 0.863988 34.3582 0 32.5092Z" fill="#364764"/>
</svg>
