<svg width="157" height="21" viewBox="0 0 157 21" fill="none" xmlns="http://www.w3.org/2000/svg">
<g clip-path="url(#clip0_245_2082)">
<path d="M46.1794 1.00348V8.34614C45.9827 8.02795 45.7368 7.75872 45.4171 7.48949C45.0975 7.22026 44.7286 6.99998 44.3106 6.80418C43.8925 6.60837 43.4745 6.46152 43.0073 6.36362C42.5401 6.26572 42.0729 6.21677 41.6303 6.21677C40.8925 6.21677 40.1794 6.33914 39.4909 6.5839C38.8024 6.82865 38.1876 7.22026 37.6466 7.75872C37.1057 8.29719 36.6876 9.00698 36.3434 9.88809C36.0237 10.7692 35.8516 11.8461 35.8516 13.0944C35.8516 14.2937 35.9991 15.3217 36.3434 16.1783C36.663 17.0349 37.0811 17.7692 37.6221 18.3077C38.163 18.8706 38.8024 19.2867 39.5155 19.5559C40.2286 19.8252 40.9909 19.9475 41.7778 19.9475C42.2204 19.9475 42.6384 19.8986 43.0811 19.7762C43.5237 19.6538 43.9171 19.507 44.3106 19.2867C44.704 19.0664 45.0483 18.7972 45.368 18.5035C45.6876 18.1853 45.9581 17.8426 46.1794 17.451V19.6049H51.4417V1.00348H46.1794ZM45.9581 14.7832C45.8106 15.2238 45.6139 15.5909 45.3925 15.8601C45.1466 16.1294 44.9007 16.3252 44.5811 16.4475C44.286 16.5699 43.9663 16.6189 43.6466 16.6189C43.327 16.6189 43.0319 16.5699 42.7122 16.4475C42.4171 16.3252 42.1466 16.1294 41.9007 15.8601C41.6548 15.5909 41.4581 15.2238 41.3106 14.7832C41.163 14.3426 41.0893 13.7797 41.0893 13.1189C41.0893 12.458 41.163 11.8951 41.3106 11.4545C41.4581 11.014 41.6548 10.6468 41.9007 10.3776C42.1466 10.1084 42.4171 9.91257 42.7122 9.79019C43.0073 9.66782 43.327 9.61886 43.6466 9.61886C43.9663 9.61886 44.2614 9.66782 44.5565 9.79019C44.8516 9.91257 45.1221 10.1084 45.3434 10.3776C45.5893 10.6468 45.7614 11.014 45.9089 11.4545C46.0565 11.8951 46.1303 12.458 46.1303 13.1189C46.1794 13.7552 46.1057 14.3182 45.9581 14.7832Z" fill="white"/>
<path d="M60.6646 14.0979C61.1564 14.0979 61.6728 14.0979 62.2383 14.0734C62.7793 14.0489 63.3203 14 63.8613 13.9021C64.3777 13.8041 64.8941 13.6818 65.3613 13.5104C65.8285 13.3391 66.2465 13.0944 66.6154 12.8007C66.9842 12.5069 67.2547 12.1153 67.476 11.6748C67.6974 11.2342 67.7957 10.6958 67.7957 10.0594C67.7957 9.54541 67.6728 9.0559 67.4269 8.59086C67.181 8.12583 66.8121 7.73422 66.3449 7.36709C65.8777 7.02443 65.2629 6.73072 64.5744 6.53492C63.8613 6.33911 63.0252 6.21674 62.0908 6.21674C61.5006 6.21674 60.8859 6.29016 60.2711 6.41254C59.6564 6.53492 59.0662 6.73072 58.476 6.99995C57.8859 7.26918 57.3449 7.58737 56.8531 7.9545C56.3367 8.32163 55.8941 8.76219 55.5252 9.2517C55.1564 9.74121 54.8367 10.2797 54.64 10.8916C54.4187 11.5034 54.3203 12.1398 54.3203 12.8496C54.3203 14.0734 54.5416 15.1503 54.9597 16.0314C55.3777 16.9125 55.9679 17.6713 56.681 18.2342C57.3941 18.8216 58.2301 19.2377 59.1892 19.5069C60.1482 19.7762 61.1318 19.923 62.1892 19.923C63.1482 19.923 64.058 19.8496 64.9433 19.6783C65.8285 19.5069 66.6646 19.3111 67.4269 19.0664V15.6643C67.0826 15.7867 66.7138 15.909 66.3449 16.0069C65.976 16.1293 65.5826 16.2027 65.2138 16.3007C64.8449 16.3741 64.4515 16.4475 64.0826 16.4965C63.7138 16.5454 63.3695 16.5699 63.0498 16.5699C62.6072 16.5699 62.2138 16.5209 61.8449 16.4475C61.4761 16.3741 61.1318 16.2272 60.8367 16.0314C60.5416 15.8356 60.3203 15.5909 60.1236 15.2727C59.9269 14.9545 59.8039 14.5629 59.7301 14.0979C59.8777 14.0979 60.0498 14.0979 60.1974 14.0979C60.3449 14.0979 60.4924 14.0979 60.6646 14.0979ZM59.6072 12.2132C59.6318 11.6014 59.7301 11.0874 59.9269 10.7202C60.1236 10.3286 60.3449 10.0349 60.6154 9.81464C60.8859 9.59436 61.181 9.4475 61.4761 9.37408C61.7957 9.30065 62.0662 9.2517 62.3367 9.2517C62.9269 9.2517 63.3695 9.37408 63.7138 9.61883C64.0334 9.86359 64.2056 10.2062 64.2056 10.5979C64.2056 10.8426 64.1318 11.0384 63.9597 11.2097C63.7875 11.3811 63.5662 11.5279 63.2957 11.6258C63.0252 11.7482 62.7056 11.8216 62.3613 11.8951C62.017 11.9685 61.6728 12.0174 61.3285 12.0664C60.9842 12.1153 60.6646 12.1398 60.3695 12.1398C60.0498 12.2132 59.8039 12.2132 59.6072 12.2132Z" fill="white"/>
<path d="M80.2135 6.55945L77.6807 16.3497L75.3938 6.55945H69.4922L73.82 19.6294H80.484L84.6889 6.55945H80.2135Z" fill="white"/>
<path d="M110.778 9.32513C110.606 8.68876 110.335 8.12583 109.966 7.66079C109.597 7.19576 109.106 6.8531 108.491 6.60834C107.876 6.36359 107.138 6.24121 106.253 6.24121C105.712 6.24121 105.171 6.31464 104.606 6.43701C104.065 6.55939 103.548 6.7552 103.056 6.99995C102.565 7.24471 102.122 7.51394 101.729 7.85659C101.335 8.17478 100.991 8.54191 100.745 8.93352C100.524 8.49296 100.278 8.10135 99.9827 7.75869C99.6876 7.41604 99.368 7.1468 99.0237 6.92653C98.6794 6.70625 98.3106 6.53492 97.9171 6.41254C97.5237 6.29016 97.1303 6.24121 96.7368 6.24121C96.245 6.24121 95.7286 6.31464 95.2368 6.46149C94.745 6.60834 94.2778 6.82862 93.8352 7.07338C93.3926 7.31813 92.9991 7.61184 92.6548 7.9545C92.3106 8.29715 92.0155 8.63981 91.7942 9.00694C91.7942 8.78666 91.7942 8.56639 91.8188 8.37058C91.8434 8.17478 91.8434 7.97897 91.868 7.78317C91.8926 7.58736 91.9171 7.39156 91.9909 7.19576C92.0647 6.99995 92.1139 6.77967 92.163 6.53492H86.8516V19.6048H92.1139V11.5769C92.1139 11.2832 92.1876 11.0384 92.3352 10.7937C92.4827 10.5489 92.6548 10.3531 92.8762 10.1818C93.0975 10.0104 93.3434 9.86359 93.6384 9.76569C93.9089 9.66778 94.1794 9.61883 94.4499 9.61883C94.8188 9.61883 95.1385 9.69226 95.4089 9.83911C95.6548 9.98597 95.8516 10.1818 95.9991 10.4265C96.1466 10.6713 96.245 10.965 96.3188 11.2587C96.3925 11.5524 96.4171 11.8951 96.4171 12.2377V19.6293H101.679V12.0419C101.679 11.7237 101.729 11.43 101.852 11.1363C101.975 10.8426 102.122 10.5979 102.319 10.3531C102.516 10.1328 102.737 9.93701 102.983 9.81464C103.229 9.66778 103.499 9.61883 103.794 9.61883C104.212 9.61883 104.532 9.71674 104.802 9.88806C105.048 10.0839 105.27 10.3041 105.417 10.5734C105.565 10.8426 105.663 11.1363 105.712 11.43C105.761 11.7237 105.786 11.993 105.786 12.2377V19.6293H111.048V11.479C111.048 10.6958 110.95 9.96149 110.778 9.32513Z" fill="white"/>
<path d="M120.171 14.0979C120.663 14.0979 121.179 14.0979 121.745 14.0734C122.286 14.0489 122.827 14 123.368 13.9021C123.884 13.8041 124.401 13.6818 124.868 13.5104C125.335 13.3391 125.753 13.0944 126.122 12.8007C126.491 12.5069 126.761 12.1153 126.983 11.6748C127.204 11.2342 127.302 10.6958 127.302 10.0594C127.302 9.54541 127.179 9.0559 126.934 8.59086C126.688 8.12583 126.319 7.73422 125.852 7.36709C125.384 7.02443 124.794 6.73072 124.081 6.53492C123.368 6.33911 122.532 6.21674 121.622 6.21674C121.032 6.21674 120.417 6.29016 119.802 6.41254C119.188 6.53492 118.573 6.73072 118.007 6.99995C117.442 7.26918 116.876 7.58737 116.384 7.9545C115.868 8.32163 115.425 8.76219 115.056 9.2517C114.688 9.74121 114.393 10.2797 114.171 10.8916C113.95 11.5034 113.852 12.1398 113.852 12.8496C113.852 14.0734 114.073 15.1503 114.491 16.0314C114.909 16.937 115.499 17.6713 116.212 18.2342C116.925 18.8216 117.761 19.2377 118.72 19.5069C119.679 19.7762 120.663 19.923 121.72 19.923C122.679 19.923 123.589 19.8496 124.475 19.6783C125.36 19.5069 126.196 19.3111 126.958 19.0664V15.6643C126.614 15.7867 126.245 15.909 125.876 16.0069C125.507 16.1293 125.114 16.2027 124.745 16.3007C124.376 16.3741 123.983 16.4475 123.614 16.4965C123.245 16.5454 122.901 16.5699 122.581 16.5699C122.138 16.5699 121.745 16.5209 121.376 16.4475C121.007 16.3741 120.663 16.2272 120.368 16.0314C120.073 15.8356 119.852 15.5909 119.655 15.2727C119.458 14.9545 119.335 14.5629 119.261 14.0979C119.409 14.0979 119.581 14.0979 119.729 14.0979C119.827 14.0979 119.999 14.0979 120.171 14.0979ZM119.114 12.2132C119.138 11.6014 119.237 11.0874 119.434 10.7202C119.63 10.3531 119.852 10.0349 120.122 9.81464C120.393 9.59436 120.688 9.4475 120.983 9.37408C121.278 9.30065 121.573 9.2517 121.843 9.2517C122.434 9.2517 122.876 9.37408 123.22 9.61883C123.54 9.86359 123.712 10.2062 123.712 10.5979C123.712 10.8426 123.614 11.0384 123.466 11.2097C123.294 11.3811 123.073 11.5279 122.802 11.6258C122.532 11.7482 122.212 11.8216 121.868 11.8951C121.524 11.9685 121.179 12.0174 120.835 12.0664C120.491 12.1153 120.171 12.1398 119.876 12.1398C119.556 12.2132 119.286 12.2132 119.114 12.2132Z" fill="white"/>
<path d="M135.961 14.0979C136.453 14.0979 136.97 14.0979 137.535 14.0734C138.076 14.0489 138.617 14 139.158 13.9021C139.699 13.8041 140.191 13.6818 140.658 13.5104C141.125 13.3391 141.543 13.0944 141.912 12.8007C142.281 12.5069 142.552 12.1153 142.773 11.6748C142.994 11.2342 143.093 10.6958 143.093 10.0594C143.093 9.54541 142.97 9.0559 142.724 8.59086C142.478 8.12583 142.109 7.73422 141.642 7.36709C141.175 7.02443 140.56 6.73072 139.847 6.53492C139.134 6.33911 138.322 6.21674 137.388 6.21674C136.798 6.21674 136.183 6.29016 135.568 6.41254C134.953 6.53492 134.363 6.73072 133.773 6.99995C133.183 7.26918 132.642 7.58737 132.15 7.9545C131.634 8.32163 131.191 8.76219 130.822 9.2517C130.453 9.74121 130.134 10.2797 129.937 10.8916C129.716 11.5034 129.617 12.1398 129.617 12.8496C129.617 14.0734 129.838 15.1503 130.257 16.0314C130.675 16.937 131.265 17.6713 131.978 18.2342C132.691 18.8216 133.527 19.2377 134.486 19.5069C135.445 19.7762 136.429 19.923 137.486 19.923C138.445 19.923 139.355 19.8496 140.24 19.6783C141.125 19.5069 141.961 19.3111 142.699 19.0664V15.6643C142.355 15.7867 141.986 15.909 141.617 16.0069C141.248 16.1293 140.855 16.2027 140.486 16.3007C140.117 16.3741 139.748 16.4475 139.379 16.4965C139.011 16.5454 138.666 16.5699 138.347 16.5699C137.904 16.5699 137.511 16.5209 137.142 16.4475C136.773 16.3741 136.429 16.2272 136.134 16.0314C135.838 15.8356 135.593 15.5909 135.42 15.2727C135.224 14.9545 135.101 14.5629 135.027 14.0979C135.175 14.0979 135.347 14.0979 135.494 14.0979C135.642 14.0979 135.789 14.0979 135.961 14.0979ZM134.904 12.2132C134.929 11.6014 135.027 11.0874 135.224 10.7202C135.42 10.3531 135.642 10.0349 135.912 9.81464C136.183 9.59436 136.478 9.4475 136.773 9.37408C137.068 9.30065 137.363 9.2517 137.634 9.2517C138.224 9.2517 138.666 9.37408 139.011 9.61883C139.33 9.86359 139.502 10.2062 139.502 10.5979C139.502 10.8426 139.429 11.0384 139.257 11.2097C139.084 11.3811 138.863 11.5279 138.593 11.6258C138.322 11.7482 138.002 11.8216 137.658 11.8951C137.314 11.9685 136.97 12.0174 136.625 12.0664C136.281 12.1153 135.961 12.1398 135.666 12.1398C135.347 12.2132 135.101 12.2132 134.904 12.2132Z" fill="white"/>
<path d="M156.414 16.2028C155.996 16.3496 155.627 16.4475 155.282 16.4965C154.938 16.5454 154.643 16.5699 154.373 16.5699C153.93 16.5699 153.61 16.5209 153.34 16.3741C153.094 16.2517 152.873 16.0804 152.75 15.8846C152.602 15.6888 152.528 15.444 152.479 15.1748C152.43 14.9055 152.405 14.6118 152.405 14.3181V9.54541H155.922C155.922 9.00695 155.971 8.49296 156.045 8.00345C156.118 7.51394 156.217 7.02443 156.315 6.53492H152.43V2.56989H150.487L144.758 8.76219V9.54541H147.168V14.3916C147.168 15.4685 147.315 16.3496 147.635 17.0594C147.955 17.7692 148.373 18.3566 148.889 18.7727C149.405 19.2132 150.02 19.5069 150.709 19.7028C151.397 19.8986 152.11 19.972 152.873 19.972C153.61 19.972 154.323 19.923 154.963 19.8007C155.602 19.6783 156.217 19.5314 156.733 19.3356L156.414 16.2028Z" fill="white"/>
<path d="M13.8421 0L0.710938 4.30769V10.9406L13.8421 15.1259V10.6713L4.00602 8.15035L13.8421 5.87413V0Z" fill="white"/>
<path d="M15.5625 5.87415V10.3287L25.3986 12.8497L15.5625 15.1259V21L28.6936 16.6923V10.035L15.5625 5.87415Z" fill="#FCF347"/>
</g>
<defs>
<clipPath id="clip0_245_2082">
<rect width="156" height="21" fill="white" transform="translate(0.710938)"/>
</clipPath>
</defs>
</svg>

