<svg width="94" height="86" viewBox="0 0 94 86" fill="none" xmlns="http://www.w3.org/2000/svg">
<path d="M66.6831 85.3C62.7009 84.2074 58.6945 83.1147 54.7124 82.0463C38.5654 77.7243 22.4184 73.4022 6.27135 69.0802C3.06623 68.2303 1.05088 66.1664 0.322445 62.8884C0.298164 62.767 0.22532 62.6699 0.176758 62.5728C0.176758 61.7958 0.176758 60.9945 0.176758 60.2175C0.953757 57.3766 1.75504 54.5357 2.53204 51.6705C4.30457 45.0417 6.0771 38.4129 7.84963 31.7842C7.89819 31.6142 7.94675 31.4442 7.99532 31.25C8.35953 30.2059 9.35507 29.6231 10.3506 29.8902C11.3947 30.1816 12.0017 31.2014 11.7103 32.2941C10.8119 35.6935 9.91353 39.0685 8.99085 42.4679C7.41257 48.344 5.83429 54.1958 4.28029 60.0718C3.57613 62.6699 4.71735 64.6124 7.33972 65.3166C26.9832 70.5856 46.6268 75.8546 66.2946 81.0994C69.184 81.8764 70.9808 80.8323 71.7578 77.9428C72.7048 74.4706 73.6275 70.9984 74.5502 67.5262C74.8173 66.5063 75.4972 65.9236 76.3713 65.875C77.1968 65.8507 77.9253 66.1907 78.1924 66.9677C78.3623 67.5019 78.3623 68.1818 78.2409 68.7159C77.5611 71.4112 76.8083 74.0821 76.0799 76.7773C75.8371 77.6514 75.6186 78.5256 75.3757 79.3997C74.5016 82.4106 72.5348 84.3288 69.4754 85.0572C69.3297 85.0815 69.2083 85.1786 69.0869 85.2272C68.2613 85.3 67.4601 85.3 66.6831 85.3Z" fill="#364764"/>
<path d="M54.3728 62.0143C44.1018 62.0143 33.8308 62.0143 23.5599 62.0143C19.7963 62.0143 16.664 59.5862 15.8627 56.0654C15.6927 55.3369 15.6442 54.5599 15.6442 53.8072C15.6199 38.6072 15.6199 23.4071 15.6442 8.18278C15.6442 4.05497 18.048 0.946968 21.8845 0.145687C22.5158 0.0242812 23.1957 0 23.8755 0C44.2475 0 64.6437 0 85.0157 0C89.9448 0 93.1985 3.27797 93.1985 8.20706C93.1985 23.4071 93.1985 38.6072 93.1985 53.8315C93.1985 58.7363 89.8962 62.0386 84.9914 62.0386C74.7933 62.0386 64.5952 62.0143 54.3728 62.0143ZM19.5535 51.4519C19.9905 51.0392 20.2333 50.8206 20.5004 50.5535C25.1382 45.9401 29.7516 41.3024 34.3893 36.689C37.2302 33.848 40.6539 33.8723 43.4948 36.7132C45.1459 38.3644 46.7727 39.9912 48.4724 41.6909C48.7395 41.3995 48.958 41.1567 49.1766 40.9139C53.8386 35.3049 58.5249 29.696 63.1869 24.1113C63.5996 23.6014 64.061 23.0915 64.5952 22.703C67.1447 20.7847 70.4712 21.2218 72.7051 23.8199C77.9741 29.9388 83.2431 36.0819 88.4879 42.2251C88.7064 42.4922 88.9492 42.7593 89.3135 43.172C89.3377 42.7835 89.362 42.6136 89.362 42.4436C89.362 30.9586 89.362 19.4978 89.362 8.01281C89.362 5.48756 87.7109 3.885 85.1857 3.885C64.6923 3.885 44.1746 3.885 23.6813 3.885C23.3413 3.885 23.0014 3.885 22.6857 3.95784C20.719 4.37062 19.5777 5.90034 19.5777 8.1585C19.5777 22.2659 19.5777 36.3733 19.5777 50.505C19.5535 50.7235 19.5535 50.9663 19.5535 51.4519ZM20.1848 56.4053C21.1317 57.7165 22.3458 58.1778 23.7784 58.1778C28.1005 58.1778 32.4468 58.1778 36.7689 58.1778C52.8188 58.1778 68.8687 58.1778 84.9186 58.1778C87.7352 58.1778 89.3135 56.6238 89.3135 53.8072C89.3135 52.6903 89.2649 51.5733 89.3377 50.4564C89.3863 49.6066 89.1435 48.9753 88.585 48.3439C82.3205 41.0839 76.0802 33.7752 69.8399 26.4908C68.6258 25.0582 67.4118 25.0825 66.222 26.5151C60.9773 32.8282 55.7082 39.1171 50.4635 45.4302C49.2251 46.9114 48.181 46.9356 46.8213 45.5759C44.7817 43.5363 42.7421 41.4966 40.7267 39.4813C39.3912 38.1458 38.4443 38.1701 37.1088 39.5056C31.7184 44.896 26.3037 50.2864 20.9132 55.7012C20.6947 55.8711 20.4762 56.1139 20.1848 56.4053Z" fill="#364764"/>
<path d="M35.0204 11.6307C39.2939 11.6065 42.7661 15.0301 42.8147 19.3036C42.8632 23.5528 39.3424 27.1222 35.0447 27.1222C30.7955 27.1222 27.299 23.6257 27.299 19.3765C27.2747 15.1515 30.7469 11.655 35.0204 11.6307ZM31.184 19.4007C31.2082 21.5375 32.9565 23.2857 35.069 23.2372C37.2057 23.2129 38.9054 21.4646 38.8811 19.3036C38.8568 17.1669 37.1329 15.4429 34.9961 15.4672C32.8836 15.5157 31.184 17.264 31.184 19.4007Z" fill="#364764"/>
</svg>
