<svg width="22" height="21" viewBox="0 0 22 21" fill="none" xmlns="http://www.w3.org/2000/svg">
<path d="M21.4957 17.1166C21.3747 15.3789 20.527 14.0981 18.9315 13.3019C18.7463 13.205 18.6822 13.1081 18.6893 12.9073C18.6964 11.9034 18.6964 10.9065 18.6964 9.90261C18.6964 9.18259 18.7107 8.46949 18.6893 7.74947C18.668 7.15407 18.668 6.55174 18.5469 5.97019C17.6138 1.45622 12.8414 -1.09154 8.33978 0.452351C5.26981 1.51161 3.33239 4.25322 3.31102 7.45869C3.3039 9.27951 3.3039 11.1073 3.31102 12.9281C3.31102 13.1219 3.24692 13.2119 3.07597 13.3019C1.48044 14.0981 0.625696 15.3789 0.504607 17.1097C0.454747 17.7813 0.810891 18.1205 1.50893 18.1205C3.33951 18.1205 5.17009 18.1274 7.00067 18.1136C7.22148 18.1136 7.29984 18.1828 7.36394 18.3767C7.86254 19.9483 9.32273 20.9937 11.0037 20.9937C12.6919 20.9937 14.152 19.9413 14.6506 18.3559C14.7148 18.1551 14.8002 18.1136 14.9997 18.1136C16.8374 18.1205 18.6822 18.1205 20.5199 18.1205C21.1895 18.1205 21.5456 17.7744 21.4957 17.1166ZM10.8684 19.3321C10.0778 19.2836 9.32986 18.7782 9.11617 18.1413H12.9127C12.5352 18.9305 11.7445 19.3806 10.8684 19.3321ZM19.6295 16.452H2.34943C2.47052 16.0228 2.69845 15.6697 3.00474 15.3581C3.34664 15.005 3.76689 14.7627 4.237 14.6173C4.84244 14.4304 5.01339 14.202 5.01339 13.5789C5.01339 11.5296 5.00627 9.48029 5.01339 7.43792C5.02764 4.98709 6.5092 2.86857 8.81701 2.0447C12.4069 0.763897 16.2106 2.80626 16.8872 6.37866C16.9585 6.76637 16.9798 7.16792 16.9798 7.56254C16.987 9.55644 16.987 11.5573 16.987 13.5512C16.987 14.2089 17.1508 14.4235 17.7847 14.6243C18.6181 14.8874 19.2093 15.4135 19.5654 16.1889C19.5939 16.2443 19.6153 16.2997 19.6295 16.362C19.6367 16.3897 19.6295 16.4174 19.6295 16.452Z" fill="white"/>
<path d="M21.4957 17.1166C21.3747 15.3789 20.527 14.0981 18.9315 13.3019C18.7463 13.205 18.6822 13.1081 18.6893 12.9073C18.6964 11.9034 18.6964 10.9065 18.6964 9.90261C18.6964 9.18259 18.7107 8.46949 18.6893 7.74947C18.668 7.15407 18.668 6.55174 18.5469 5.97019C17.6138 1.45622 12.8414 -1.09154 8.33978 0.452351C5.26981 1.51161 3.33239 4.25322 3.31102 7.45869C3.3039 9.27951 3.3039 11.1073 3.31102 12.9281C3.31102 13.1219 3.24692 13.2119 3.07597 13.3019C1.48044 14.0981 0.625696 15.3789 0.504607 17.1097C0.454747 17.7813 0.810891 18.1205 1.50893 18.1205C3.33951 18.1205 5.17009 18.1274 7.00067 18.1136C7.22148 18.1136 7.29984 18.1828 7.36394 18.3767C7.86254 19.9483 9.32273 20.9937 11.0037 20.9937C12.6919 20.9937 14.152 19.9413 14.6506 18.3559C14.7148 18.1551 14.8002 18.1136 14.9997 18.1136C16.8374 18.1205 18.6822 18.1205 20.5199 18.1205C21.1895 18.1205 21.5456 17.7744 21.4957 17.1166ZM10.8684 19.3321C10.0778 19.2836 9.32986 18.7782 9.11617 18.1413H12.9127C12.5352 18.9305 11.7445 19.3806 10.8684 19.3321ZM19.6295 16.452H2.34943C2.47052 16.0228 2.69845 15.6697 3.00474 15.3581C3.34664 15.005 3.76689 14.7627 4.237 14.6173C4.84244 14.4304 5.01339 14.202 5.01339 13.5789C5.01339 11.5296 5.00627 9.48029 5.01339 7.43792C5.02764 4.98709 6.5092 2.86857 8.81701 2.0447C12.4069 0.763897 16.2106 2.80626 16.8872 6.37866C16.9585 6.76637 16.9798 7.16792 16.9798 7.56254C16.987 9.55644 16.987 11.5573 16.987 13.5512C16.987 14.2089 17.1508 14.4235 17.7847 14.6243C18.6181 14.8874 19.2093 15.4135 19.5654 16.1889C19.5939 16.2443 19.6153 16.2997 19.6295 16.362C19.6367 16.3897 19.6295 16.4174 19.6295 16.452Z" fill="white"/>
</svg>
