<svg width="24" height="24" viewBox="0 0 24 24" fill="none" xmlns="http://www.w3.org/2000/svg">
<g clip-path="url(#clip0_274_534)">
<path d="M21.4239 14.2146C21.7064 14.1911 21.9655 14.1911 22.2151 14.144C23.8634 13.8333 24.5604 11.833 23.4725 10.5574C23.416 10.4915 23.3595 10.4303 23.2983 10.3691C20.0722 7.14027 16.8414 3.90669 13.6107 0.687237C13.4223 0.498965 13.1915 0.334227 12.9513 0.207143C12.292 -0.141161 11.0816 -0.0658518 10.4835 0.56486C10.1397 0.927284 9.77708 1.27088 9.41915 1.62389C6.52276 4.51858 3.62166 7.41326 0.729982 10.3174C0.513342 10.5339 0.296701 10.788 0.183672 11.0704C-0.423862 12.5907 0.508635 14.1205 2.12873 14.1911C2.2606 14.1958 2.39246 14.1911 2.54788 14.1911C2.54788 14.3087 2.54788 14.4029 2.54788 14.4923C2.54788 16.7845 2.54317 19.072 2.54788 21.3642C2.55259 22.6209 3.34851 23.6376 4.54945 23.92C4.77551 23.9718 5.0157 23.9906 5.24647 23.9906C6.43328 23.9953 7.6248 23.9953 8.81162 23.9953C9.40973 23.9953 9.67347 23.7318 9.67347 23.1434C9.67347 21.3548 9.67347 19.5615 9.67347 17.7729C9.67347 16.9257 10.1491 16.4597 10.9969 16.455C11.6703 16.455 12.3391 16.4503 13.0126 16.455C13.7991 16.4597 14.2841 16.9398 14.2841 17.7259C14.2841 19.5239 14.2841 21.3219 14.2841 23.1199C14.2841 23.7318 14.5432 23.9906 15.1507 23.9906C16.3234 23.9906 17.4961 23.9671 18.6688 23.9953C20.237 24.0377 21.4474 22.7998 21.4239 21.2371C21.3815 18.9967 21.4144 16.7516 21.4144 14.5064C21.4239 14.417 21.4239 14.3229 21.4239 14.2146ZM8.27472 22.5833C7.25746 22.5833 6.28257 22.5833 5.30298 22.5833C4.42229 22.5833 3.96075 22.122 3.96075 21.2419C3.96075 18.6955 3.96075 16.1444 3.96075 13.598C3.96075 13.0708 3.67818 12.7884 3.15071 12.7884C2.83045 12.7884 2.5102 12.7931 2.18995 12.7884C1.79435 12.7837 1.48352 12.5249 1.40345 12.1436C1.3281 11.7671 1.5259 11.5082 1.77551 11.2587C4.94506 8.09575 8.1146 4.92807 11.2841 1.76039C11.7928 1.25205 12.1931 1.25205 12.7064 1.7651C15.5322 4.58918 18.3579 7.41326 21.1837 10.2373C21.5699 10.6233 21.9608 11.0093 22.3422 11.3999C22.5965 11.6588 22.6766 11.9694 22.5259 12.3036C22.3846 12.6284 22.1209 12.7884 21.7629 12.7884C21.4757 12.7884 21.1837 12.7884 20.8964 12.7884C20.2747 12.7884 20.0204 13.0473 20.0204 13.6733C20.0204 16.2197 20.0204 18.7708 20.0204 21.3172C20.0204 22.0985 19.5306 22.5833 18.7441 22.5833C17.8116 22.5833 16.8838 22.5833 15.9513 22.5833C15.876 22.5833 15.8006 22.5739 15.7064 22.5692C15.7064 22.4562 15.7064 22.3668 15.7064 22.2726C15.7064 20.6865 15.7206 19.1003 15.697 17.5141C15.6782 16.2668 14.675 15.1654 13.4317 15.0854C12.4757 15.0195 11.5102 15.0712 10.5494 15.0759C10.4741 15.0759 10.394 15.0948 10.3187 15.1136C9.0989 15.3913 8.28885 16.3938 8.27943 17.6647C8.27002 19.2038 8.27472 20.7429 8.27472 22.2868C8.27472 22.3715 8.27472 22.4656 8.27472 22.5833Z" fill="white"/>
</g>
<defs>
<clipPath id="clip0_274_534">
<rect width="24" height="24" fill="white" transform="matrix(-1 0 0 1 24 0)"/>
</clipPath>
</defs>
</svg>
