<svg width="21" height="21" viewBox="0 0 21 21" fill="none" xmlns="http://www.w3.org/2000/svg">
<path d="M0 18.6221C0 13.7515 0 8.88641 0 4.02129C0.0109546 3.98842 0.0273865 3.96102 0.0328639 3.92815C0.279343 2.56395 1.36933 1.64352 2.74961 1.64352C3.29734 1.64352 3.84507 1.64352 4.38732 1.64352C4.45305 1.64352 4.51878 1.64352 4.58998 1.64352C4.58998 1.29836 4.58998 0.98607 4.58998 0.668303C4.58998 0.399845 4.71596 0.197132 4.95696 0.0711209C5.38967 -0.148029 5.88811 0.158781 5.90454 0.657346C5.91002 0.980591 5.90454 1.30932 5.90454 1.63256C8.98279 1.63256 12.0282 1.63256 15.09 1.63256C15.09 1.2874 15.079 0.958676 15.09 0.624473C15.1064 0.273834 15.3912 0.00537606 15.7363 -0.000102679C16.0869 -0.00558142 16.3826 0.262877 16.4045 0.618995C16.41 0.734048 16.4045 0.849102 16.4045 0.969634C16.4045 1.19426 16.4045 1.41341 16.4045 1.64352C17.0563 1.64352 17.6808 1.63804 18.2997 1.64352C19.7895 1.65448 20.989 2.84336 20.9945 4.3281C21 8.99051 21.0055 13.6474 20.989 18.3098C20.9836 19.4768 20.3865 20.3096 19.3185 20.7917C19.0994 20.8903 18.8529 20.9342 18.6174 20.9999C13.2058 20.9999 7.78873 20.9999 2.37715 20.9999C2.33881 20.9889 2.30047 20.9725 2.26213 20.9615C1.15571 20.7424 0.432707 20.085 0.0931142 19.0111C0.0547731 18.8851 0.0328639 18.7536 0 18.6221ZM19.6854 7.23183C13.5454 7.23183 7.43819 7.23183 1.31455 7.23183C1.31455 7.33045 1.31455 7.40715 1.31455 7.48933C1.31455 11.0341 1.31455 14.5843 1.31455 18.129C1.31455 19.1152 1.87872 19.6795 2.86463 19.6795C7.95853 19.6795 13.0469 19.6795 18.1408 19.6795C19.1268 19.6795 19.6909 19.1152 19.6909 18.129C19.6909 14.5733 19.6909 11.0231 19.6909 7.46742C19.6854 7.39619 19.6854 7.32497 19.6854 7.23183ZM1.32003 5.89502C7.45462 5.89502 13.5618 5.89502 19.6745 5.89502C19.68 5.86215 19.6854 5.84023 19.6854 5.8238C19.6854 5.33071 19.6909 4.83762 19.6854 4.35002C19.6745 3.64326 19.1761 3.03512 18.4695 2.98033C17.7903 2.93102 17.1056 2.96937 16.41 2.96937C16.41 3.16661 16.41 3.35836 16.41 3.55012C16.41 3.97746 16.1307 4.27879 15.7418 4.27331C15.3638 4.26783 15.0955 3.97198 15.0955 3.55012C15.0955 3.35289 15.0955 3.16113 15.0955 2.96937C12.0172 2.96937 8.97183 2.96937 5.91002 2.96937C5.91002 3.18304 5.91549 3.38576 5.91002 3.58847C5.90454 3.97746 5.6252 4.26236 5.26369 4.26783C4.89124 4.27331 4.60642 3.97746 4.60094 3.58299C4.59546 3.38028 4.60094 3.17757 4.60094 2.96389C3.89984 2.96389 3.21518 2.92554 2.53599 2.97485C1.88967 3.01868 1.3748 3.56108 1.33099 4.20209C1.29264 4.76092 1.32003 5.31975 1.32003 5.89502Z" fill="white"/>
</svg>
