<svg width="25" height="24" viewBox="0 0 25 24" fill="none" xmlns="http://www.w3.org/2000/svg">
<g clip-path="url(#clip0_535_469)">
<path d="M21.9275 14.2146C22.2101 14.1911 22.4691 14.1911 22.7187 14.144C24.367 13.8333 25.0641 11.833 23.9761 10.5574C23.9196 10.4915 23.8631 10.4303 23.8019 10.3691C20.5758 7.14027 17.3451 3.90669 14.1143 0.687237C13.9259 0.498965 13.6951 0.334227 13.455 0.207143C12.7956 -0.141161 11.5853 -0.0658518 10.9871 0.56486C10.6433 0.927284 10.2807 1.27088 9.92277 1.62389C7.02638 4.51858 4.12528 7.41326 1.2336 10.3174C1.01696 10.5339 0.800322 10.788 0.687292 11.0704C0.0797569 12.5907 1.01225 14.1205 2.63235 14.1911C2.76422 14.1958 2.89608 14.1911 3.0515 14.1911C3.0515 14.3087 3.0515 14.4029 3.0515 14.4923C3.0515 16.7845 3.04679 19.072 3.0515 21.3642C3.05621 22.6209 3.85213 23.6376 5.05307 23.92C5.27913 23.9718 5.51932 23.9906 5.75009 23.9906C6.9369 23.9953 8.12842 23.9953 9.31524 23.9953C9.91335 23.9953 10.1771 23.7318 10.1771 23.1434C10.1771 21.3548 10.1771 19.5615 10.1771 17.7729C10.1771 16.9257 10.6528 16.4597 11.5005 16.455C12.1739 16.455 12.8427 16.4503 13.5162 16.455C14.3027 16.4597 14.7878 16.9398 14.7878 17.7259C14.7878 19.5239 14.7878 21.3219 14.7878 23.1199C14.7878 23.7318 15.0468 23.9906 15.6543 23.9906C16.827 23.9906 17.9997 23.9671 19.1724 23.9953C20.7407 24.0377 21.951 22.7998 21.9275 21.2371C21.8851 18.9967 21.9181 16.7516 21.9181 14.5064C21.9275 14.417 21.9275 14.3229 21.9275 14.2146ZM8.77834 22.5833C7.76108 22.5833 6.78619 22.5833 5.8066 22.5833C4.92591 22.5833 4.46437 22.122 4.46437 21.2419C4.46437 18.6955 4.46437 16.1444 4.46437 13.598C4.46437 13.0708 4.1818 12.7884 3.65433 12.7884C3.33407 12.7884 3.01382 12.7931 2.69357 12.7884C2.29797 12.7837 1.98714 12.5249 1.90707 12.1436C1.83172 11.7671 2.02952 11.5082 2.27913 11.2587C5.44867 8.09575 8.61822 4.92807 11.7878 1.76039C12.2964 1.25205 12.6967 1.25205 13.2101 1.7651C16.0358 4.58918 18.8615 7.41326 21.6873 10.2373C22.0735 10.6233 22.4644 11.0093 22.8458 11.3999C23.1002 11.6588 23.1802 11.9694 23.0295 12.3036C22.8882 12.6284 22.6245 12.7884 22.2666 12.7884C21.9793 12.7884 21.6873 12.7884 21.4 12.7884C20.7783 12.7884 20.524 13.0473 20.524 13.6733C20.524 16.2197 20.524 18.7708 20.524 21.3172C20.524 22.0985 20.0342 22.5833 19.2477 22.5833C18.3152 22.5833 17.3874 22.5833 16.455 22.5833C16.3796 22.5833 16.3042 22.5739 16.2101 22.5692C16.2101 22.4562 16.2101 22.3668 16.2101 22.2726C16.2101 20.6865 16.2242 19.1003 16.2006 17.5141C16.1818 16.2668 15.1787 15.1654 13.9353 15.0854C12.9793 15.0195 12.0138 15.0712 11.0531 15.0759C10.9777 15.0759 10.8977 15.0948 10.8223 15.1136C9.60252 15.3913 8.79247 16.3938 8.78305 17.6647C8.77364 19.2038 8.77834 20.7429 8.77834 22.2868C8.77834 22.3715 8.77834 22.4656 8.77834 22.5833Z" fill="#364764"/>
</g>
<defs>
<clipPath id="clip0_535_469">
<rect width="24" height="24" fill="white" transform="matrix(-1 0 0 1 24.5 0)"/>
</clipPath>
</defs>
</svg>
