<svg width="100" height="50" viewBox="0 0 20 10" fill="none" xmlns="http://www.w3.org/2000/svg">
<path d="M0.210227 5.11364V4.43182L5.69886 1.63636V2.72727L1.48864 4.75568L1.52273 4.6875V4.85795L1.48864 4.78977L5.69886 6.81818V7.90909L0.210227 5.11364ZM9.14311 6.54545V6.49432C9.14879 5.9517 9.20561 5.51989 9.31357 5.19886C9.42152 4.87784 9.57493 4.6179 9.77379 4.41903C9.97266 4.22017 10.2113 4.03693 10.4897 3.86932C10.6573 3.76705 10.8079 3.64631 10.9414 3.5071C11.0749 3.36506 11.18 3.2017 11.2567 3.01705C11.3363 2.83239 11.3761 2.62784 11.3761 2.40341C11.3761 2.125 11.3107 1.88352 11.18 1.67898C11.0494 1.47443 10.8746 1.31676 10.6559 1.20597C10.4371 1.09517 10.1942 1.03977 9.9272 1.03977C9.69425 1.03977 9.46982 1.08807 9.25391 1.18466C9.038 1.28125 8.8576 1.43324 8.71271 1.64062C8.56783 1.84801 8.48402 2.11932 8.46129 2.45455H7.38743C7.41016 1.97159 7.53516 1.55824 7.76243 1.21449C7.99254 0.870739 8.2951 0.607954 8.6701 0.426136C9.04794 0.244318 9.46697 0.153409 9.9272 0.153409C10.4272 0.153409 10.8619 0.252841 11.2312 0.451704C11.6033 0.650568 11.8903 0.923295 12.092 1.26989C12.2965 1.61648 12.3988 2.01136 12.3988 2.45455C12.3988 2.76705 12.3505 3.04972 12.2539 3.30256C12.1602 3.5554 12.0238 3.78125 11.8448 3.98011C11.6687 4.17898 11.4556 4.35511 11.2056 4.50852C10.9556 4.66477 10.7553 4.82955 10.6048 5.00284C10.4542 5.1733 10.3448 5.37642 10.2766 5.61222C10.2085 5.84801 10.1715 6.14205 10.1658 6.49432V6.54545H9.14311ZM9.68857 9.06818C9.47834 9.06818 9.29794 8.9929 9.14737 8.84233C8.9968 8.69176 8.92152 8.51136 8.92152 8.30114C8.92152 8.09091 8.9968 7.91051 9.14737 7.75994C9.29794 7.60937 9.47834 7.53409 9.68857 7.53409C9.89879 7.53409 10.0792 7.60937 10.2298 7.75994C10.3803 7.91051 10.4556 8.09091 10.4556 8.30114C10.4556 8.44034 10.4201 8.56818 10.3491 8.68466C10.2809 8.80114 10.1886 8.89489 10.0721 8.96591C9.95845 9.03409 9.83061 9.06818 9.68857 9.06818ZM19.6911 5.11364L14.2024 7.90909V6.81818L18.4126 4.78977L18.3786 4.85795V4.6875L18.4126 4.75568L14.2024 2.72727V1.63636L19.6911 4.43182V5.11364Z" fill="black"/>
</svg>

