<svg width="104" height="105" viewBox="0 0 104 105" fill="none" xmlns="http://www.w3.org/2000/svg">
<path d="M0 49.6224C0.270833 47.6995 0.487499 45.7495 0.785415 43.8266C4.00833 24.3266 19.2833 7.58913 38.4853 2.7683C54.8707 -1.34835 69.929 1.57664 83.5248 11.6245C84.7707 12.5454 85.0144 13.7641 84.1748 14.7662C83.4436 15.6599 82.3061 15.6599 81.1686 14.9558C78.1894 13.1141 75.3186 11.0287 72.1499 9.53912C62.1832 4.82663 51.6478 3.5808 40.977 6.39746C21.0437 11.6245 8.5854 24.5703 4.87499 44.8557C1.7875 61.6474 7.09582 76.1911 19.5 88.0265C19.6895 88.2161 19.9062 88.3515 20.2041 88.5952C22.3708 79.6036 27.2458 72.6161 35.0728 67.7682C40.8145 64.2203 47.1249 62.6494 53.8686 63.0286C68.3853 63.8411 80.5728 74.1057 83.8498 88.5681C84.1207 88.3515 84.3644 88.189 84.554 87.9994C93.654 79.4682 98.7998 69.0411 99.8019 56.6099C100.614 46.5891 98.3936 37.2453 93.329 28.5516C93.2207 28.3891 93.1394 28.1995 93.0311 28.0099C92.4894 26.9266 92.7873 25.8433 93.7082 25.2745C94.6832 24.6787 95.929 24.9224 96.4977 26.0058C97.9061 28.7141 99.3686 31.4495 100.533 34.2662C102.456 38.9245 103.485 43.7995 103.837 48.8099C103.864 49.0807 103.946 49.3245 104 49.5953C104 51.762 104 53.9286 104 56.0953C103.919 56.7724 103.837 57.4224 103.756 58.0994C102.564 69.014 98.4477 78.6827 91.1894 86.9702C83.1186 96.1515 73.0436 101.839 60.9645 103.979C59.0686 104.304 57.1728 104.52 55.2499 104.764C53.0832 104.764 50.9166 104.764 48.7499 104.764C48.4791 104.71 48.2353 104.629 47.9645 104.601C39.1353 103.924 30.9562 101.216 23.5625 96.314C11.1583 88.0265 3.52083 76.5161 0.785415 61.8099C0.433333 59.914 0.24375 58.0182 0 56.1224C0 53.9557 0 51.789 0 49.6224ZM51.8103 100.729C61.8853 100.647 70.904 97.8848 79.1103 92.3869C80.0311 91.764 80.1394 91.1681 79.9498 90.2202C76.4832 72.6973 58.7166 62.6224 41.952 68.9057C31.9854 72.6432 26.1083 80.0369 23.9416 90.4369C23.7791 91.2765 23.9687 91.764 24.7 92.2515C32.9604 97.8848 42.0603 100.647 51.8103 100.729Z" fill="#364764"/>
<path d="M33.7188 40.7119C33.7188 30.664 41.925 22.4578 52 22.4578C62.0749 22.4578 70.2812 30.6369 70.2812 40.7119C70.2812 50.7598 62.0749 58.966 52 58.966C41.925 58.9389 33.7188 50.7598 33.7188 40.7119ZM52.0271 54.9035C59.8541 54.9035 66.2187 48.5119 66.2187 40.7119C66.2187 32.9119 59.8541 26.5203 52.0271 26.5203C44.1458 26.5203 37.7542 32.8848 37.7812 40.739C37.8083 48.539 44.2 54.9035 52.0271 54.9035Z" fill="#364764"/>
<path d="M91.4058 19.5869C91.4329 20.6974 90.485 21.6453 89.3746 21.6453C88.2913 21.6453 87.3704 20.7515 87.3434 19.6682C87.3163 18.5578 88.2371 17.6099 89.3746 17.6099C90.4579 17.6099 91.3788 18.5036 91.4058 19.5869Z" fill="#364764"/>
</svg>
