<svg width="8" height="11" viewBox="0 0 8 11" fill="none" xmlns="http://www.w3.org/2000/svg">
<path d="M0.44126 5.74752C0.44126 4.90568 0.44126 4.06669 0.44126 3.22485C0.44126 2.96604 0.580446 2.78402 0.805926 2.74136C1.06759 2.69301 1.31256 2.88641 1.32926 3.15659C1.33205 3.19641 1.32926 3.23338 1.32926 3.2732C1.32926 4.90853 1.32926 6.5467 1.32926 8.18202C1.32926 8.71955 1.69393 9.09212 2.22005 9.09212C3.40313 9.09212 4.58899 9.09212 5.77206 9.09212C6.30375 9.09212 6.66564 8.71955 6.66564 8.17349C6.66564 6.52394 6.66564 4.87155 6.66564 3.22201C6.66564 2.97742 6.79647 2.7954 7.00246 2.74421C7.26135 2.68164 7.50632 2.84659 7.54807 3.11393C7.55642 3.16228 7.55642 3.21347 7.55642 3.26182C7.55642 4.90568 7.55642 6.54954 7.55642 8.19055C7.55642 9.08927 6.96349 9.81451 6.09776 9.97377C5.99476 9.99368 5.89176 9.99937 5.78598 9.99937C4.59455 10.0022 3.40313 10.0022 2.2117 9.99937C1.20678 9.99937 0.438477 9.21157 0.438477 8.18487C0.44126 7.37431 0.44126 6.56092 0.44126 5.74752Z" fill="#364764"/>
<path d="M2.22305 1.36728C2.22305 1.07434 2.22305 0.798466 2.22305 0.522593C2.22305 0.460024 2.22305 0.394611 2.23975 0.332042C2.29264 0.132959 2.45966 0.00497708 2.67401 0.00213303C3.55644 -0.000711011 4.43888 -0.000711011 5.31853 0.00213303C5.59134 0.00213303 5.76949 0.195528 5.77228 0.477089C5.77506 0.730209 5.77228 0.980485 5.77228 1.2336C5.77228 1.27058 5.77228 1.31039 5.77228 1.36443C5.82238 1.36443 5.86136 1.36443 5.90311 1.36443C6.43758 1.36443 6.97206 1.36443 7.50653 1.36443C7.6485 1.36443 7.77655 1.39856 7.87398 1.50948C7.99924 1.65168 8.03543 1.81379 7.96306 1.99297C7.89346 2.16645 7.75984 2.25746 7.5789 2.27453C7.55385 2.27737 7.53158 2.27453 7.50653 2.27453C5.16543 2.27453 2.82711 2.27453 0.486012 2.27453C0.215992 2.27737 0.0183483 2.10957 0.00164602 1.8593C-0.0206237 1.58058 0.185371 1.36728 0.480444 1.36728C1.01492 1.36443 1.54939 1.36728 2.08386 1.36728C2.12562 1.36728 2.16459 1.36728 2.22305 1.36728ZM3.11383 1.35874C3.70955 1.35874 4.29413 1.35874 4.88427 1.35874C4.88427 1.20801 4.88427 1.06581 4.88427 0.92076C4.29134 0.92076 3.70398 0.92076 3.11383 0.92076C3.11383 1.06865 3.11383 1.21085 3.11383 1.35874Z" fill="#364764"/>
<path d="M2.66587 5.68509C2.66587 5.15325 2.66309 4.62142 2.66587 4.08958C2.66587 3.86775 2.81897 3.68857 3.03054 3.64591C3.22261 3.60609 3.43139 3.71417 3.50933 3.90187C3.53717 3.96729 3.55387 4.04692 3.55387 4.11802C3.55666 5.16179 3.55666 6.20271 3.55387 7.24647C3.55387 7.52803 3.3618 7.72996 3.10291 7.72712C2.84681 7.72427 2.66309 7.52234 2.66309 7.23794C2.66587 6.72032 2.66587 6.20271 2.66587 5.68509Z" fill="#364764"/>
<path d="M5.33484 5.68488C5.33484 6.21387 5.33484 6.74286 5.33484 7.27185C5.33484 7.488 5.20679 7.6558 5.00915 7.71268C4.81986 7.76672 4.61108 7.69277 4.51643 7.5136C4.47468 7.43681 4.44962 7.34011 4.44684 7.25195C4.44127 6.20818 4.44406 5.16726 4.44406 4.1235C4.44406 3.84193 4.63613 3.64001 4.89502 3.64285C5.15112 3.6457 5.33484 3.84762 5.33484 4.13203C5.33484 4.6468 5.33484 5.16442 5.33484 5.68488Z" fill="#364764"/>
</svg>
