<svg width="110" height="98" viewBox="0 0 110 98" fill="none" xmlns="http://www.w3.org/2000/svg">
<path d="M54.7521 58.0007C60.011 58.0007 64.2742 53.7375 64.2742 48.4786C64.2742 43.2197 60.011 38.9565 54.7521 38.9565C49.4932 38.9565 45.23 43.2197 45.23 48.4786C45.23 53.7375 49.4932 58.0007 54.7521 58.0007Z" fill="#F9F9F9"/>
<path d="M54.752 70.8558C24.2813 70.8558 0 60.8577 0 48.479C0 36.1002 24.2813 26.1021 54.752 26.1021C85.2227 26.1021 109.504 36.1002 109.504 48.479C109.504 61.3338 85.6988 70.8558 54.752 70.8558ZM54.752 30.8631C25.2335 30.8631 4.76104 40.3852 4.76104 48.479C4.76104 56.5727 25.2335 66.0948 54.752 66.0948C84.2705 66.0948 104.743 57.0488 104.743 48.479C104.743 39.9091 84.2705 30.8631 54.752 30.8631Z" fill="#F9F9F9"/>
<path d="M76.6532 97.5176C65.2267 97.5176 48.563 82.7584 35.2321 59.9054C28.0905 47.5266 23.3295 34.6718 21.4251 24.1975C19.5207 12.771 21.4251 4.67726 27.1383 1.34453C38.0887 -4.84482 58.5612 10.8666 73.7966 37.5285C89.0319 64.1903 92.8407 89.8999 81.8903 96.0893C80.462 97.0415 78.5576 97.5176 76.6532 97.5176ZM32.8516 4.67726C31.8994 4.67726 30.4711 4.67726 29.995 5.62947C26.1861 7.53389 25.2339 14.1993 26.6622 23.7214C28.0905 33.7196 32.8516 46.0983 39.9931 58.0009C54.7524 83.7106 72.8443 96.5654 80.462 92.2804C87.6036 87.9955 85.2231 65.6186 70.9399 40.3851C57.1329 17.5321 41.4215 4.67726 32.8516 4.67726Z" fill="#F9F9F9"/>
<path d="M32.8512 97.5176C30.9468 97.5176 29.0424 97.0415 27.6141 96.0893C16.6637 89.8999 20.4725 64.1903 35.7078 37.5285C50.9432 10.8666 71.4156 -4.84482 82.366 1.34453C88.0793 4.67726 89.9837 12.771 88.0793 24.1975C86.1749 35.1479 81.4138 47.5266 74.2723 59.9054C60.9414 82.7584 44.2777 97.5176 32.8512 97.5176ZM76.6528 4.67726C68.0829 4.67726 52.3715 17.5321 39.5167 39.909C24.7574 65.6186 22.3769 87.9955 29.9946 91.8043C37.1361 96.0893 55.7042 82.7584 70.4634 57.5248C77.1289 45.6222 81.8899 33.7196 83.7944 23.2453C85.2227 14.1993 84.2705 7.53389 80.4616 5.15337C79.0333 4.67726 78.0811 4.67726 76.6528 4.67726Z" fill="#F9F9F9"/>
</svg>