<svg width="25" height="25" viewBox="0 0 25 25" fill="none" xmlns="http://www.w3.org/2000/svg">
<circle cx="12.5" cy="12.5" r="12.5" fill="#364764"/>
<path d="M12.4971 5.00001C16.6307 4.99414 19.9941 8.3555 20 12.4971C20.0059 16.6269 16.6425 19.9941 12.503 20C8.36929 20.0059 5.00591 16.6445 5.00003 12.5029C4.98827 8.36723 8.35165 5.00587 12.4971 5.00001ZM6.78756 9.7458H9.36302C9.56882 8.64295 9.84518 7.56356 10.3744 6.5487C8.76325 7.13532 7.58136 8.19124 6.78756 9.7458ZM10.392 14.0634H14.6433V10.9366H10.392C10.2862 11.975 10.2862 13.0074 10.392 14.0634ZM14.2611 8.91866C14.0964 8.25577 13.8848 7.61049 13.5143 7.02973C13.3556 6.78335 13.1615 6.54283 12.9381 6.34924C12.6382 6.08526 12.3383 6.09113 12.0502 6.36098C11.815 6.58389 11.5974 6.84787 11.4328 7.12359C11.0035 7.84514 10.7801 8.65468 10.6096 9.47595C10.5919 9.54635 10.5802 9.61674 10.5684 9.693C10.5684 9.70474 10.5743 9.72233 10.5802 9.75753H14.4492C14.3846 9.46422 14.3258 9.18851 14.2611 8.91866ZM14.5962 6.55456C15.149 7.55769 15.4312 8.63708 15.6311 9.7458H18.1595C17.9537 8.68987 15.8487 6.79508 14.5962 6.55456ZM18.6829 13.8815C18.8828 12.9429 18.8887 12.0102 18.6711 11.0716C18.6417 10.9601 18.6064 10.9132 18.4829 10.9132C17.6186 10.919 16.7542 10.9132 15.8899 10.919C15.8604 10.919 15.831 10.9308 15.8134 10.9308V14.0751H16.0839C16.8659 14.0751 17.6539 14.0692 18.4359 14.081C18.5947 14.081 18.6535 14.034 18.6829 13.8815ZM18.2125 15.2483H15.637C15.4371 16.3571 15.1548 17.4364 14.5786 18.4806C16.2309 17.8647 17.4128 16.8088 18.2125 15.2483ZM10.6978 15.923C10.8565 16.5858 11.0565 17.237 11.4034 17.8295C11.568 18.1111 11.7738 18.3809 12.0031 18.6038C12.3266 18.9206 12.6676 18.9206 12.9969 18.6038C13.2203 18.3868 13.4202 18.1345 13.5731 17.8647C14.0318 17.0786 14.2611 16.2045 14.4316 15.3187C14.4375 15.3011 14.4257 15.2777 14.4198 15.2425H10.5508C10.5978 15.483 10.6449 15.7 10.6978 15.923ZM10.4214 18.4865C9.85106 17.4423 9.56294 16.3629 9.36302 15.2483H6.78756C7.57549 16.8029 8.76325 17.8588 10.4214 18.4865ZM6.4818 14.0692C7.36968 14.0751 8.25757 14.0751 9.13957 14.0692C9.15133 14.0692 9.16309 14.0575 9.17485 14.0516V10.9249C9.12193 10.919 9.06313 10.9132 8.99845 10.9132C8.18701 10.9132 7.36968 10.919 6.55824 10.9073C6.40536 10.9073 6.34656 10.9484 6.31128 11.1009C6.11136 12.0395 6.10548 12.9722 6.32892 13.905C6.34656 13.9812 6.42888 14.0692 6.4818 14.0692Z" fill="white"/>
</svg>
