<svg width="12" height="13" viewBox="0 0 12 13" fill="none" xmlns="http://www.w3.org/2000/svg">
<path d="M0.216797 11.1168C0.28241 10.7669 0.50609 10.5226 0.747665 10.2813C1.93168 9.08989 3.11271 7.89546 4.29374 6.70102C4.32357 6.67086 4.3683 6.64975 4.41006 6.6226C4.35637 6.56529 4.32953 6.53513 4.29971 6.50798C3.06201 5.25624 1.82729 4.0045 0.589597 2.75577C0.189955 2.34857 0.163114 1.71516 0.526967 1.28082C0.887838 0.843465 1.51414 0.762026 1.97642 1.08778C2.03308 1.13001 2.08676 1.17827 2.13448 1.22955C3.36025 2.46018 4.58304 3.69081 5.80582 4.92144C5.84161 4.95763 5.8774 4.99986 5.91915 5.04812C5.95792 5.00891 5.99073 4.98176 6.02056 4.94858C7.23738 3.71795 8.4542 2.48431 9.674 1.25368C10.2735 0.647409 11.2606 0.882676 11.4933 1.69103C11.6096 2.09823 11.5261 2.46621 11.2248 2.77085C10.005 4.00751 8.78524 5.24116 7.56246 6.4748C7.52965 6.50798 7.49684 6.53513 7.45211 6.57434C7.49983 6.6226 7.53562 6.66181 7.57439 6.69801C8.81209 7.9407 10.0468 9.18641 11.2875 10.4291C11.5201 10.6644 11.6484 10.9389 11.6424 11.2737C11.6334 11.8437 11.1801 12.2962 10.6135 12.3112C10.2317 12.3203 9.91557 12.1936 9.64418 11.9161C8.43928 10.6885 7.22545 9.46692 6.01757 8.24233C5.98477 8.20915 5.96091 8.17295 5.90424 8.09755C5.86547 8.16089 5.84758 8.20613 5.81477 8.2363C4.58602 9.48201 3.35429 10.7277 2.12255 11.9734C1.74379 12.3565 1.09959 12.4259 0.652228 12.1333C0.425565 11.9885 0.306269 11.7653 0.240656 11.5059C0.234691 11.4818 0.225744 11.4577 0.216797 11.4335C0.216797 11.328 0.216797 11.2224 0.216797 11.1168Z" fill="white"/>
</svg>
